<svg width="715" height="602" viewBox="0 0 715 602" fill="none" xmlns="http://www.w3.org/2000/svg">
<rect x="713.317" y="600.471" width="712.146" height="599.299" rx="8.20155" transform="rotate(-180 713.317 600.471)" fill="#DCE6FF" stroke="#96B7FF" stroke-width="2.3433"/>
<path d="M694.077 590.235H20.4127C15.8831 590.235 12.2111 586.563 12.2111 582.034L12.2111 19.6091C12.2111 15.0795 15.8831 11.4075 20.4127 11.4075H694.076C698.606 11.4075 702.278 15.0795 702.278 19.6091L702.278 582.034C702.278 586.563 698.606 590.235 694.077 590.235Z" fill="#FAFBFF" stroke="#96B7FF" stroke-width="2.3433"/>
<mask id="path-3-inside-1_174_643" fill="white">
<path d="M339 385H332L332 270H339V385Z"/>
</mask>
<path d="M339 385H332L332 270H339V385Z" fill="white"/>
<path d="M332 385H331.414V385.586H332V385ZM332 270V269.414H331.414V270H332ZM339 384.414H332V385.586H339V384.414ZM332.586 385L332.586 270H331.414V385H332.586ZM332 270.586H339V269.414H332V270.586Z" fill="#7A7A7A" mask="url(#path-3-inside-1_174_643)"/>
<mask id="path-5-inside-2_174_643" fill="white">
<path d="M349 270H356L356 385H349V270Z"/>
</mask>
<path d="M349 270H356L356 385H349V270Z" fill="white"/>
<path d="M356 270H356.586V269.414H356V270ZM356 385V385.586H356.586V385H356ZM349 270.586H356V269.414H349V270.586ZM355.414 270V385H356.586V270H355.414ZM356 384.414H349V385.586H356V384.414Z" fill="#7A7A7A" mask="url(#path-5-inside-2_174_643)"/>
<mask id="path-7-inside-3_174_643" fill="white">
<path d="M240.04 156.53L239.423 160.425L154 146.896L154.617 143L240.04 156.53Z"/>
</mask>
<path d="M240.04 156.53L239.423 160.425L154 146.896L154.617 143L240.04 156.53Z" fill="white"/>
<path d="M240.04 156.53L240.618 156.621L240.711 156.038L240.132 155.947L240.04 156.53ZM239.423 160.425L239.331 161.004L239.91 161.096L240.001 160.517L239.423 160.425ZM154 146.896L153.421 146.804L153.33 147.383L153.908 147.474L154 146.896ZM154.617 143L154.709 142.417L154.131 142.326L154.038 142.908L154.617 143ZM239.461 156.438L238.844 160.334L240.001 160.517L240.618 156.621L239.461 156.438ZM239.514 159.847L154.092 146.317L153.908 147.474L239.331 161.004L239.514 159.847ZM154.579 146.987L155.196 143.092L154.038 142.908L153.421 146.804L154.579 146.987ZM154.525 143.583L239.947 157.112L240.132 155.947L154.709 142.417L154.525 143.583Z" fill="#7A7A7A" mask="url(#path-7-inside-3_174_643)"/>
<rect x="13.2929" y="250.293" width="67.4142" height="50.4142" rx="6.70709" fill="white" stroke="black" stroke-width="0.585825"/>
<rect x="13.2929" y="458.293" width="67.4142" height="130.414" rx="6.70709" fill="white" stroke="black" stroke-width="0.585825"/>
<line x1="56.8214" y1="561.471" x2="38.8307" y2="554.994" stroke="black"/>
<line x1="38.8306" y1="554.773" x2="56.8211" y2="548.296" stroke="black"/>
<line x1="56.8214" y1="548.517" x2="38.8307" y2="542.041" stroke="black"/>
<line x1="38.8306" y1="541.82" x2="56.8211" y2="535.343" stroke="black"/>
<line x1="56.8214" y1="535.564" x2="38.8307" y2="529.088" stroke="black"/>
<line x1="38.8306" y1="528.866" x2="56.8211" y2="522.389" stroke="black"/>
<line x1="56.8214" y1="522.611" x2="38.8307" y2="516.134" stroke="black"/>
<line x1="38.8306" y1="515.913" x2="56.8211" y2="509.436" stroke="black"/>
<line x1="56.8214" y1="509.658" x2="38.8307" y2="503.181" stroke="black"/>
<line x1="38.8306" y1="502.96" x2="56.8211" y2="496.483" stroke="black"/>
<line x1="56.8214" y1="496.704" x2="38.8307" y2="490.228" stroke="black"/>
<line x1="38.8306" y1="490.007" x2="56.8211" y2="483.53" stroke="black"/>
<rect x="630.293" y="458.293" width="67.4142" height="130.414" rx="6.70709" fill="white" stroke="black" stroke-width="0.585825"/>
<rect x="630.293" y="399.293" width="67.4142" height="50.4142" rx="6.70709" fill="white" stroke="black" stroke-width="0.585825"/>
<rect x="630.293" y="247.293" width="67.4142" height="50.4142" rx="6.70709" fill="white" stroke="black" stroke-width="0.585825"/>
<line x1="673.821" y1="561.471" x2="655.831" y2="554.994" stroke="black"/>
<line x1="655.831" y1="554.773" x2="673.821" y2="548.296" stroke="black"/>
<line x1="673.821" y1="548.517" x2="655.831" y2="542.041" stroke="black"/>
<line x1="655.831" y1="541.82" x2="673.821" y2="535.343" stroke="black"/>
<line x1="673.821" y1="535.564" x2="655.831" y2="529.088" stroke="black"/>
<line x1="655.831" y1="528.866" x2="673.821" y2="522.389" stroke="black"/>
<line x1="673.821" y1="522.611" x2="655.831" y2="516.134" stroke="black"/>
<line x1="655.831" y1="515.913" x2="673.821" y2="509.436" stroke="black"/>
<line x1="673.821" y1="509.658" x2="655.831" y2="503.181" stroke="black"/>
<line x1="655.831" y1="502.96" x2="673.821" y2="496.483" stroke="black"/>
<line x1="673.821" y1="496.704" x2="655.831" y2="490.228" stroke="black"/>
<line x1="655.831" y1="490.007" x2="673.821" y2="483.53" stroke="black"/>
<rect x="515.293" y="301.293" width="185.414" height="94.349" rx="13.7669" fill="white" stroke="black" stroke-width="0.585825"/>
<rect x="517.888" y="303.514" width="179.358" height="89.9076" rx="13.7669" fill="white" stroke="black" stroke-width="0.585825"/>
<line x1="624.37" y1="393.714" x2="624.37" y2="303.221" stroke="black"/>
<rect x="651.981" y="306.289" width="37.4793" height="83.8007" rx="13.7669" fill="white" stroke="black" stroke-width="0.585825"/>
<rect x="349.293" y="413.293" width="67.4142" height="175.414" rx="6.70709" fill="white" stroke="black" stroke-width="0.585825"/>
<mask id="path-43-inside-4_174_643" fill="white">
<path d="M417 480V480C424.732 480 431 486.268 431 494V524C431 531.732 424.732 538 417 538V538V480Z"/>
</mask>
<path d="M417 480V480C424.732 480 431 486.268 431 494V524C431 531.732 424.732 538 417 538V538V480Z" fill="white"/>
<path d="M417 479.414H417C425.056 479.414 431.586 485.944 431.586 494L430.414 494C430.414 486.592 424.408 480.586 417 480.586H417V479.414ZM431.586 524C431.586 532.056 425.056 538.586 417 538.586H417V537.414H417C424.408 537.414 430.414 531.408 430.414 524L431.586 524ZM417 538V480V538ZM417 479.414C425.056 479.414 431.586 485.944 431.586 494V524C431.586 532.056 425.056 538.586 417 538.586L417 537.414C424.408 537.414 430.414 531.408 430.414 524V494C430.414 486.592 424.408 480.586 417 480.586L417 479.414Z" fill="black" mask="url(#path-43-inside-4_174_643)"/>
<mask id="path-45-inside-5_174_643" fill="white">
<path d="M430 482C430 480.895 430.895 480 432 480V480C433.105 480 434 480.895 434 482V536C434 537.105 433.105 538 432 538V538C430.895 538 430 537.105 430 536V482Z"/>
</mask>
<path d="M430 482C430 480.895 430.895 480 432 480V480C433.105 480 434 480.895 434 482V536C434 537.105 433.105 538 432 538V538C430.895 538 430 537.105 430 536V482Z" fill="white"/>
<path d="M429.41 482C429.41 480.572 430.568 479.414 431.996 479.414H432C433.428 479.414 434.586 480.572 434.586 482L433.414 482C433.414 481.219 432.781 480.586 432 480.586H432C431.221 480.586 430.59 481.219 430.59 482L429.41 482ZM434.586 536C434.586 537.428 433.428 538.586 432 538.586H431.996C430.568 538.586 429.41 537.428 429.41 536L430.59 536C430.59 536.781 431.221 537.414 432 537.414H432C432.781 537.414 433.414 536.781 433.414 536L434.586 536ZM431.996 538.586C430.568 538.586 429.41 537.428 429.41 536V482C429.41 480.572 430.568 479.414 431.996 479.414L432 480.586C431.221 480.586 430.59 481.219 430.59 482L430.59 536C430.59 536.781 431.221 537.414 432 537.414L431.996 538.586ZM432 479.414C433.428 479.414 434.586 480.572 434.586 482V536C434.586 537.428 433.428 538.586 432 538.586L432 537.414C432.781 537.414 433.414 536.781 433.414 536V482C433.414 481.219 432.781 480.586 432 480.586L432 479.414Z" fill="black" mask="url(#path-45-inside-5_174_643)"/>
<rect x="268.293" y="0.292913" width="110.414" height="11.4142" fill="white" stroke="#7A7A7A" stroke-width="0.585825"/>
<mask id="path-48-inside-6_174_643" fill="white">
<path d="M701 182V192L441 192V182L701 182Z"/>
</mask>
<path d="M441 192H439.243V193.757H441V192ZM441 182V180.243H439.243V182H441ZM701 190.243L441 190.243V193.757L701 193.757V190.243ZM442.757 192V182H439.243V192H442.757ZM441 183.757L701 183.757V180.243L441 180.243V183.757Z" fill="#CBDBFF" mask="url(#path-48-inside-6_174_643)"/>
<mask id="path-50-inside-7_174_643" fill="white">
<path d="M438.187 186L441.997 187.021L420.597 266.886L416.787 265.865L438.187 186Z"/>
</mask>
<path d="M438.187 186L441.997 187.021L420.597 266.886L416.787 265.865L438.187 186Z" fill="white"/>
<path d="M438.187 186L438.339 185.434L437.769 185.281L437.617 185.847L438.187 186ZM441.997 187.021L442.563 187.173L442.715 186.607L442.149 186.455L441.997 187.021ZM420.597 266.886L420.446 267.452L421.012 267.603L421.163 267.037L420.597 266.886ZM416.787 265.865L416.217 265.712L416.066 266.278L416.636 266.431L416.787 265.865ZM438.035 186.566L441.845 187.587L442.149 186.455L438.339 185.434L438.035 186.566ZM441.431 186.869L420.032 266.734L421.163 267.037L442.563 187.173L441.431 186.869ZM420.749 266.32L416.939 265.299L416.636 266.431L420.446 267.452L420.749 266.32ZM417.357 266.018L438.757 186.153L437.617 185.847L416.217 265.712L417.357 266.018Z" fill="#7A7A7A" mask="url(#path-50-inside-7_174_643)"/>
<mask id="path-52-inside-8_174_643" fill="white">
<path d="M349 589H339L339 181H349L349 589Z"/>
</mask>
<path d="M339 181V179.243H337.243V181H339ZM349 181H350.757V179.243H349V181ZM340.757 589L340.757 181H337.243L337.243 589H340.757ZM339 182.757H349V179.243H339V182.757ZM347.243 181L347.243 589H350.757L350.757 181H347.243Z" fill="#CBDBFF" mask="url(#path-52-inside-8_174_643)"/>
<mask id="path-54-inside-9_174_643" fill="white">
<path d="M343.046 177L345.308 180.231L259.262 240.481L257 237.25L343.046 177Z"/>
</mask>
<path d="M343.046 177L345.308 180.231L259.262 240.481L257 237.25L343.046 177Z" fill="white"/>
<path d="M343.046 177L343.526 176.664L343.187 176.181L342.707 176.517L343.046 177ZM345.308 180.231L345.644 180.711L346.124 180.375L345.788 179.895L345.308 180.231ZM259.262 240.481L258.783 240.817L259.119 241.297L259.598 240.961L259.262 240.481ZM257 237.25L256.662 236.767L256.182 237.103L256.52 237.586L257 237.25ZM342.566 177.336L344.828 180.567L345.788 179.895L343.526 176.664L342.566 177.336ZM344.972 179.751L258.926 240.001L259.598 240.961L345.644 180.711L344.972 179.751ZM259.742 240.145L257.48 236.914L256.52 237.586L258.783 240.817L259.742 240.145ZM257.338 237.733L343.384 177.483L342.707 176.517L256.662 236.767L257.338 237.733Z" fill="#7A7A7A" mask="url(#path-54-inside-9_174_643)"/>
<mask id="path-56-inside-10_174_643" fill="white">
<path d="M13.2444 183V173H234.244V183H13.2444Z"/>
</mask>
<path d="M234.244 173H236.002V171.243H234.244V173ZM234.244 183V184.757H236.002V183H234.244ZM13.2444 174.757H234.244V171.243H13.2444V174.757ZM232.487 173V183H236.002V173H232.487ZM234.244 181.243H13.2444V184.757H234.244V181.243Z" fill="#CBDBFF" mask="url(#path-56-inside-10_174_643)"/>
<mask id="path-58-inside-11_174_643" fill="white">
<path d="M240.444 213.97H231.244V160H240.444V213.97Z"/>
</mask>
<path d="M240.444 213.97H231.244V160H240.444V213.97Z" fill="white"/>
<path d="M240.444 213.97V215.727H242.201V213.97H240.444ZM231.244 213.97H229.487V215.727H231.244V213.97ZM231.244 160V158.243H229.487V160H231.244ZM240.444 160H242.201V158.243H240.444V160ZM240.444 212.212H231.244V215.727H240.444V212.212ZM233.002 213.97V160H229.487V213.97H233.002ZM231.244 161.757H240.444V158.243H231.244V161.757ZM238.686 160V213.97H242.201V160H238.686Z" fill="#CBDBFF" mask="url(#path-58-inside-11_174_643)"/>
<rect x="157.617" y="231.826" width="5.51966" height="1.84" transform="rotate(-90 157.617 231.826)" fill="white"/>
<mask id="path-61-inside-12_174_643" fill="white">
<path d="M231.244 13H240.244V111H231.244V13Z"/>
</mask>
<path d="M240.244 111V112.757H242.002V111H240.244ZM231.244 111H229.487V112.757H231.244V111ZM238.487 13V111H242.002V13H238.487ZM240.244 109.243H231.244V112.757H240.244V109.243ZM233.002 111V13H229.487V111H233.002Z" fill="#CBDBFF" mask="url(#path-61-inside-12_174_643)"/>
<rect x="569.118" y="181.707" width="84.4142" height="23.5895" transform="rotate(-90 569.118 181.707)" fill="white" stroke="#7A7A7A" stroke-width="0.585825"/>
<rect x="545.546" y="181.707" width="84.4142" height="23.5895" transform="rotate(-90 545.546 181.707)" fill="white" stroke="#7A7A7A" stroke-width="0.585825"/>
<rect x="521.975" y="181.707" width="84.4142" height="23.5895" transform="rotate(-90 521.975 181.707)" fill="white" stroke="#7A7A7A" stroke-width="0.585825"/>
<rect x="498.404" y="181.707" width="84.4142" height="23.5895" transform="rotate(-90 498.404 181.707)" fill="white" stroke="#7A7A7A" stroke-width="0.585825"/>
<rect x="474.833" y="181.707" width="84.4142" height="23.5895" transform="rotate(-90 474.833 181.707)" fill="white" stroke="#7A7A7A" stroke-width="0.585825"/>
<rect x="451.624" y="181.707" width="84.4142" height="23.5895" transform="rotate(-90 451.624 181.707)" fill="white" stroke="#7A7A7A" stroke-width="0.585825"/>
<rect x="428.959" y="181.707" width="84.4142" height="23.5895" transform="rotate(-90 428.959 181.707)" fill="white" stroke="#7A7A7A" stroke-width="0.585825"/>
<rect x="406.293" y="181.707" width="84.4142" height="23.5895" transform="rotate(-90 406.293 181.707)" fill="white" stroke="#7A7A7A" stroke-width="0.585825"/>
<mask id="path-71-inside-13_174_643" fill="white">
<path d="M593 182V97H701V182H593Z"/>
</mask>
<path d="M593 182V97H701V182H593Z" fill="white"/>
<path d="M593 182H592.414V182.586H593V182ZM701 182V182.586H701.586V182H701ZM593.586 182V97H592.414V182H593.586ZM700.414 97V182H701.586V97H700.414ZM701 181.414H593V182.586H701V181.414Z" fill="#7A7A7A" mask="url(#path-71-inside-13_174_643)"/>
<rect x="569.069" y="96.7071" width="84.4142" height="23.4142" transform="rotate(-90 569.069 96.7071)" fill="white" stroke="#7A7A7A" stroke-width="0.585825"/>
<rect x="545.069" y="96.7071" width="84.4142" height="23.4142" transform="rotate(-90 545.069 96.7071)" fill="white" stroke="#7A7A7A" stroke-width="0.585825"/>
<rect x="522.069" y="96.7071" width="84.4142" height="23.4142" transform="rotate(-90 522.069 96.7071)" fill="white" stroke="#7A7A7A" stroke-width="0.585825"/>
<rect x="498.13" y="95.8267" width="83.5332" height="23.946" transform="rotate(-90 498.13 95.8267)" fill="white" stroke="#7A7A7A" stroke-width="0.585825"/>
<rect x="474.212" y="95.8267" width="83.5332" height="23.946" transform="rotate(-90 474.212 95.8267)" fill="white" stroke="#7A7A7A" stroke-width="0.585825"/>
<rect x="450.293" y="95.8267" width="83.5332" height="23.946" transform="rotate(-90 450.293 95.8267)" fill="white" stroke="#7A7A7A" stroke-width="0.585825"/>
<rect x="426.293" y="95.8265" width="83.5332" height="23.946" transform="rotate(-90 426.293 95.8265)" fill="white" stroke="#7A7A7A" stroke-width="0.585825"/>
<rect x="404.293" y="95.8265" width="83.5332" height="23.946" transform="rotate(-90 404.293 95.8265)" fill="white" stroke="#7A7A7A" stroke-width="0.585825"/>
<path d="M404 183V96.0002H475V183H404Z" fill="#FAFBFF"/>
<mask id="path-82-inside-14_174_643" fill="white">
<path d="M592.776 97V12H700.776V97H592.776Z"/>
</mask>
<path d="M592.776 97V12H700.776V97H592.776Z" fill="white"/>
<path d="M592.776 97H592.191V97.5858H592.776V97ZM700.776 97V97.5858H701.362V97H700.776ZM593.362 97V12H592.191V97H593.362ZM700.191 12V97H701.362V12H700.191ZM700.776 96.4142H592.776V97.5858H700.776V96.4142Z" fill="#7A7A7A" mask="url(#path-82-inside-14_174_643)"/>
<rect x="404" y="97.0002" width="1" height="141" transform="rotate(-90 404 97.0002)" fill="#7A7A7A"/>
<mask id="path-85-inside-15_174_643" fill="white">
<path d="M138.597 66C130.67 66 124.244 59.5741 124.244 51.6473V12.9999H159.339V51.6473C159.339 59.5741 152.913 66 144.986 66H138.597Z"/>
</mask>
<path d="M138.597 66C130.67 66 124.244 59.5741 124.244 51.6473V12.9999H159.339V51.6473C159.339 59.5741 152.913 66 144.986 66H138.597Z" fill="white"/>
<path d="M138.597 66.5858C130.347 66.5858 123.659 59.8976 123.659 51.6473V12.9999H124.83V51.6473C124.83 59.2505 130.994 65.4142 138.597 65.4142L138.597 66.5858ZM159.925 12.9999V51.6473C159.925 59.8976 153.237 66.5858 144.986 66.5858L144.986 65.4142C152.59 65.4142 158.753 59.2505 158.753 51.6473V12.9999H159.925ZM159.925 51.6473C159.925 59.8976 153.237 66.5858 144.986 66.5858H138.597C130.347 66.5858 123.659 59.8976 123.659 51.6473L124.83 51.6473C124.83 59.2505 130.994 65.4142 138.597 65.4142H144.986C152.59 65.4142 158.753 59.2505 158.753 51.6473L159.925 51.6473ZM124.244 12.9999H159.339H124.244Z" fill="#7A7A7A" mask="url(#path-85-inside-15_174_643)"/>
<mask id="path-87-inside-16_174_643" fill="white">
<path d="M142.149 60.27C135.821 60.27 130.69 55.1394 130.69 48.8105V23.0267H153.609V48.8105C153.609 55.1394 148.478 60.27 142.149 60.27V60.27Z"/>
</mask>
<path d="M142.149 60.27C135.821 60.27 130.69 55.1394 130.69 48.8105V23.0267H153.609V48.8105C153.609 55.1394 148.478 60.27 142.149 60.27V60.27Z" fill="white"/>
<path d="M142.149 60.8558C135.497 60.8558 130.104 55.463 130.104 48.8105V23.0267H131.276V48.8105C131.276 54.8159 136.144 59.6842 142.149 59.6842L142.149 60.8558ZM154.195 23.0267V48.8105C154.195 55.463 148.802 60.8558 142.149 60.8558L142.149 59.6842C148.155 59.6842 153.023 54.8159 153.023 48.8105V23.0267H154.195ZM154.195 48.8105C154.195 55.463 148.802 60.8558 142.149 60.8558H142.149C135.497 60.8558 130.104 55.463 130.104 48.8105L131.276 48.8105C131.276 54.8159 136.144 59.6842 142.149 59.6842H142.149C148.155 59.6842 153.023 54.8159 153.023 48.8105L154.195 48.8105ZM130.69 23.0267H153.609H130.69Z" fill="#7A7A7A" mask="url(#path-87-inside-16_174_643)"/>
<mask id="path-89-inside-17_174_643" fill="white">
<path d="M127.174 23.7434C125.556 23.7434 124.244 22.432 124.244 20.8143V13.0002L159.339 13.0002V20.8143C159.339 22.432 158.028 23.7434 156.41 23.7434L127.174 23.7434Z"/>
</mask>
<path d="M127.174 23.7434C125.556 23.7434 124.244 22.432 124.244 20.8143V13.0002L159.339 13.0002V20.8143C159.339 22.432 158.028 23.7434 156.41 23.7434L127.174 23.7434Z" fill="white"/>
<path d="M127.174 24.3292C125.232 24.3292 123.659 22.7555 123.659 20.8143V13.0002H124.83V20.8143C124.83 22.1085 125.879 23.1576 127.174 23.1576L127.174 24.3292ZM159.925 13.0002V20.8143C159.925 22.7555 158.351 24.3292 156.41 24.3292L156.41 23.1576C157.704 23.1576 158.753 22.1085 158.753 20.8143V13.0002H159.925ZM159.925 20.8143C159.925 22.7555 158.351 24.3292 156.41 24.3292L127.174 24.3292C125.232 24.3292 123.659 22.7555 123.659 20.8143L124.83 20.8143C124.83 22.1085 125.879 23.1576 127.174 23.1576L156.41 23.1576C157.704 23.1576 158.753 22.1085 158.753 20.8143L159.925 20.8143ZM124.244 13.0002L159.339 13.0002L124.244 13.0002Z" fill="#7A7A7A" mask="url(#path-89-inside-17_174_643)"/>
<circle cx="142.149" cy="30.1892" r="1.85574" transform="rotate(-90 142.149 30.1892)" stroke="#7A7A7A" stroke-width="0.585825"/>
<circle cx="142.149" cy="18.0137" r="1.85574" transform="rotate(-90 142.149 18.0137)" stroke="#7A7A7A" stroke-width="0.585825"/>
<path d="M13.5373 173.707L13.5373 38.5C13.5373 24.5785 24.8229 13.2929 38.7444 13.2929H51.7444C65.6659 13.2929 76.9515 24.5785 76.9515 38.5V173.707H13.5373Z" fill="white" stroke="#7A7A7A" stroke-width="0.585825"/>
<path d="M19.5373 167.707L19.5373 45.5C19.5373 31.5785 30.8229 20.2929 44.7444 20.2929C58.6659 20.2929 69.9515 31.5785 69.9515 45.5V167.707H19.5373Z" fill="white" stroke="#7A7A7A" stroke-width="0.585825"/>
<rect x="41.5373" y="159.707" width="6.41417" height="6.41417" rx="3.20709" transform="rotate(-90 41.5373 159.707)" fill="white" stroke="#7A7A7A" stroke-width="0.585825"/>
<rect x="42.5373" y="158.707" width="4.41417" height="4.41417" rx="2.20709" transform="rotate(-90 42.5373 158.707)" fill="white" stroke="#7A7A7A" stroke-width="0.585825"/>
<mask id="path-97-inside-18_174_643" fill="white">
<path d="M175.244 13.1717C175.244 12.5246 175.769 12 176.416 12H229.883C230.53 12 231.054 12.5246 231.054 13.1717V61.1186C231.054 61.7656 230.53 62.2902 229.883 62.2902H176.416C175.769 62.2902 175.244 61.7656 175.244 61.1186V13.1717Z"/>
</mask>
<path d="M175.244 13.1717C175.244 12.5246 175.769 12 176.416 12H229.883C230.53 12 231.054 12.5246 231.054 13.1717V61.1186C231.054 61.7656 230.53 62.2902 229.883 62.2902H176.416C175.769 62.2902 175.244 61.7656 175.244 61.1186V13.1717Z" fill="white"/>
<path d="M175.244 12H231.054H175.244ZM231.64 61.1186C231.64 62.0892 230.853 62.876 229.883 62.876H176.416C175.445 62.876 174.659 62.0892 174.659 61.1186H175.83C175.83 61.4421 176.092 61.7044 176.416 61.7044H229.883C230.206 61.7044 230.468 61.4421 230.468 61.1186H231.64ZM176.416 62.876C175.445 62.876 174.659 62.0892 174.659 61.1186V13.7575C174.659 12.7868 175.445 12 176.416 12C176.092 12 175.83 12.5246 175.83 13.1717V61.1186C175.83 61.4421 176.092 61.7044 176.416 61.7044V62.876ZM229.883 12C230.853 12 231.64 12.7868 231.64 13.7575V61.1186C231.64 62.0892 230.853 62.876 229.883 62.876V61.7044C230.206 61.7044 230.468 61.4421 230.468 61.1186V13.1717C230.468 12.5246 230.206 12 229.883 12Z" fill="#7A7A7A" mask="url(#path-97-inside-18_174_643)"/>
<rect x="217.882" y="23.3322" width="28.5457" height="29.4656" rx="4.97952" transform="rotate(90 217.882 23.3322)" fill="white" stroke="#7A7A7A" stroke-width="0.585825"/>
<path d="M207.709 24.5957C207.81 24.7712 207.943 25.18 207.994 25.5825C208.019 25.7812 208.021 25.9569 207.999 26.0874C207.977 26.2147 207.942 26.2459 207.939 26.2489C207.935 26.2503 207.89 26.2649 207.769 26.2199C207.645 26.1739 207.494 26.0841 207.335 25.9629C207.012 25.7175 206.724 25.3983 206.623 25.2227C206.449 24.9228 206.552 24.5394 206.852 24.3662C207.152 24.1931 207.535 24.2958 207.709 24.5957Z" fill="#FF9393" stroke="#7A7A7A" stroke-width="0.585825"/>
<path d="M200.809 25.2228C200.708 25.3983 200.42 25.7175 200.097 25.963C199.937 26.0841 199.786 26.1739 199.662 26.22C199.541 26.2649 199.497 26.2503 199.492 26.2489C199.489 26.2459 199.454 26.2147 199.433 26.0874C199.41 25.9569 199.413 25.7812 199.438 25.5825C199.489 25.18 199.622 24.7713 199.723 24.5957C199.896 24.2958 200.28 24.1931 200.579 24.3662C200.879 24.5394 200.982 24.9229 200.809 25.2228Z" fill="#6E9AD0" stroke="#7A7A7A" stroke-width="0.585825"/>
<path d="M201.936 23.3322H205.589L204.872 31.4411C204.821 32.016 204.34 32.4569 203.762 32.4569C203.185 32.4569 202.704 32.016 202.653 31.4411L201.936 23.3322Z" fill="white" stroke="#7A7A7A" stroke-width="0.585825"/>
<rect x="461.537" y="589.293" width="181.414" height="12.4142" fill="white" stroke="#7A7A7A" stroke-width="0.585825"/>
<rect x="198.707" y="452.642" width="185.414" height="147.349" rx="13.7669" transform="rotate(180 198.707 452.642)" fill="white" stroke="black" stroke-width="0.585825"/>
<rect x="196.112" y="449.181" width="179.358" height="140.428" rx="13.7669" transform="rotate(180 196.112 449.181)" fill="white" stroke="black" stroke-width="0.585825"/>
<line x1="89.6301" y1="308.46" x2="89.6301" y2="449.474" stroke="black"/>
<rect x="62.0186" y="444.856" width="37.4793" height="130.912" rx="13.7669" transform="rotate(180 62.0186 444.856)" fill="white" stroke="black" stroke-width="0.585825"/>
<rect x="338.707" y="588.707" width="67.4142" height="175.414" rx="6.70709" transform="rotate(180 338.707 588.707)" fill="white" stroke="black" stroke-width="0.585825"/>
<mask id="path-109-inside-19_174_643" fill="white">
<path d="M271 522V522C263.268 522 257 515.732 257 508V478C257 470.268 263.268 464 271 464V464V522Z"/>
</mask>
<path d="M271 522V522C263.268 522 257 515.732 257 508V478C257 470.268 263.268 464 271 464V464V522Z" fill="white"/>
<path d="M271 522.586H271C262.944 522.586 256.414 516.056 256.414 508L257.586 508C257.586 515.408 263.592 521.414 271 521.414H271V522.586ZM256.414 478C256.414 469.944 262.944 463.414 271 463.414H271V464.586H271C263.592 464.586 257.586 470.592 257.586 478L256.414 478ZM271 464V522V464ZM271 522.586C262.944 522.586 256.414 516.056 256.414 508V478C256.414 469.944 262.944 463.414 271 463.414L271 464.586C263.592 464.586 257.586 470.592 257.586 478V508C257.586 515.408 263.592 521.414 271 521.414L271 522.586Z" fill="black" mask="url(#path-109-inside-19_174_643)"/>
<mask id="path-111-inside-20_174_643" fill="white">
<path d="M258 520C258 521.105 257.105 522 256 522V522C254.895 522 254 521.105 254 520L254 466C254 464.895 254.895 464 256 464V464C257.105 464 258 464.895 258 466V520Z"/>
</mask>
<path d="M258 520C258 521.105 257.105 522 256 522V522C254.895 522 254 521.105 254 520L254 466C254 464.895 254.895 464 256 464V464C257.105 464 258 464.895 258 466V520Z" fill="white"/>
<path d="M258.59 520C258.59 521.428 257.432 522.586 256.004 522.586H256C254.572 522.586 253.414 521.428 253.414 520L254.586 520C254.586 520.781 255.219 521.414 256 521.414H256C256.779 521.414 257.41 520.781 257.41 520L258.59 520ZM253.414 466C253.414 464.572 254.572 463.414 256 463.414H256.004C257.432 463.414 258.59 464.572 258.59 466L257.41 466C257.41 465.219 256.779 464.586 256 464.586H256C255.219 464.586 254.586 465.219 254.586 466L253.414 466ZM256.004 463.414C257.432 463.414 258.59 464.572 258.59 466V520C258.59 521.428 257.432 522.586 256.004 522.586L256 521.414C256.779 521.414 257.41 520.781 257.41 520L257.41 466C257.41 465.219 256.779 464.586 256 464.586L256.004 463.414ZM256 522.586C254.572 522.586 253.414 521.428 253.414 520V466C253.414 464.572 254.572 463.414 256 463.414L256 464.586C255.219 464.586 254.586 465.219 254.586 466V520C254.586 520.781 255.219 521.414 256 521.414L256 522.586Z" fill="black" mask="url(#path-111-inside-20_174_643)"/>
</svg>
