<svg width="715" height="752" viewBox="0 0 715 752" fill="none" xmlns="http://www.w3.org/2000/svg">
<rect x="713.317" y="675.471" width="712.146" height="599.299" rx="8.20155" transform="rotate(-180 713.317 675.471)" fill="#DCE6FF" stroke="#96B7FF" stroke-width="2.3433"/>
<path d="M694.077 665.235H20.4127C15.8831 665.235 12.2111 661.563 12.2111 657.034L12.2111 94.6091C12.2111 90.0795 15.8831 86.4075 20.4127 86.4075H694.076C698.606 86.4075 702.278 90.0795 702.278 94.6091L702.278 657.034C702.278 661.563 698.606 665.235 694.077 665.235Z" fill="#FAFBFF" stroke="#96B7FF" stroke-width="2.3433"/>
<mask id="path-3-inside-1_174_417" fill="white">
<path d="M237.023 232.344L236.338 236.229L178.059 225.953L178.744 222.068L237.023 232.344Z"/>
</mask>
<path d="M237.023 232.344L236.338 236.229L178.059 225.953L178.744 222.068L237.023 232.344Z" fill="white"/>
<path d="M237.023 232.344L237.6 232.446L237.702 231.865L237.125 231.763L237.023 232.344ZM236.338 236.229L236.236 236.806L236.813 236.908L236.915 236.331L236.338 236.229ZM178.059 225.953L177.482 225.851L177.38 226.428L177.957 226.53L178.059 225.953ZM178.744 222.068L178.846 221.487L178.269 221.386L178.167 221.967L178.744 222.068ZM236.446 232.243L235.761 236.127L236.915 236.331L237.6 232.446L236.446 232.243ZM236.44 235.652L178.161 225.376L177.957 226.53L236.236 236.806L236.44 235.652ZM178.636 226.055L179.321 222.17L178.167 221.967L177.482 225.851L178.636 226.055ZM178.641 222.649L236.92 232.926L237.125 231.763L178.846 221.487L178.641 222.649Z" fill="#7A7A7A" mask="url(#path-3-inside-1_174_417)"/>
<path d="M250 437.293H392C394.047 437.293 395.707 438.953 395.707 441V494.707H246.293V441C246.293 438.953 247.953 437.293 250 437.293Z" fill="white" stroke="black" stroke-width="0.585825"/>
<path d="M254 441.293H388C390.047 441.293 391.707 442.953 391.707 445V494.707H250.293V445C250.293 442.953 251.953 441.293 254 441.293Z" fill="white" stroke="black" stroke-width="0.585825"/>
<rect x="77.2929" y="560.377" width="39.5461" height="47.0171" rx="8.49447" transform="rotate(-90 77.2929 560.377)" fill="white" stroke="black" stroke-width="0.585825"/>
<rect x="81.7148" y="557.658" width="32.698" height="45.4598" rx="8.49447" transform="rotate(-90 81.7148 557.658)" fill="white" stroke="black" stroke-width="0.585825"/>
<rect x="216.716" y="522.496" width="39.5461" height="47.0171" rx="8.49447" transform="rotate(90 216.716 522.496)" fill="white" stroke="black" stroke-width="0.585825"/>
<rect x="212.294" y="525.77" width="32.698" height="45.4598" rx="8.49447" transform="rotate(90 212.294 525.77)" fill="white" stroke="black" stroke-width="0.585825"/>
<rect x="169.698" y="612.006" width="39.5461" height="47.0171" rx="8.49447" transform="rotate(-90 169.698 612.006)" fill="white" stroke="black" stroke-width="0.585825"/>
<rect x="166.834" y="608.432" width="32.698" height="45.4598" rx="8.49447" transform="rotate(-90 166.834 608.432)" fill="white" stroke="black" stroke-width="0.585825"/>
<rect x="77.2929" y="612.006" width="39.5461" height="47.0171" rx="8.49447" transform="rotate(-90 77.2929 612.006)" fill="white" stroke="black" stroke-width="0.585825"/>
<rect x="81.7148" y="609.287" width="32.698" height="45.4598" rx="8.49447" transform="rotate(-90 81.7148 609.287)" fill="white" stroke="black" stroke-width="0.585825"/>
<rect x="187.1" y="495.293" width="142.644" height="80.3692" rx="13.7669" transform="rotate(90 187.1 495.293)" fill="white" stroke="black" stroke-width="0.585825"/>
<rect x="87.2929" y="664.293" width="110.414" height="12.4142" fill="white" stroke="#7A7A7A" stroke-width="0.585825"/>
<mask id="path-17-inside-2_174_417" fill="white">
<path d="M701 257V267H406V257H701Z"/>
</mask>
<path d="M406 267H404.243V268.757H406V267ZM406 257V255.243H404.243V257H406ZM701 265.243H406V268.757H701V265.243ZM407.757 267V257H404.243V267H407.757ZM406 258.757H701V255.243L406 255.243V258.757Z" fill="#CBDBFF" mask="url(#path-17-inside-2_174_417)"/>
<mask id="path-19-inside-3_174_417" fill="white">
<path d="M13.2444 258V248H234.244V258H13.2444Z"/>
</mask>
<path d="M234.244 248H236.002V246.243H234.244V248ZM234.244 258V259.757H236.002V258H234.244ZM13.2444 249.757H234.244V246.243H13.2444V249.757ZM232.487 248V258H236.002V248H232.487ZM234.244 256.243H13.2444V259.757H234.244V256.243Z" fill="#CBDBFF" mask="url(#path-19-inside-3_174_417)"/>
<mask id="path-21-inside-4_174_417" fill="white">
<path d="M240.444 288.97H231.244V235H240.444V288.97Z"/>
</mask>
<path d="M240.444 288.97H231.244V235H240.444V288.97Z" fill="white"/>
<path d="M240.444 288.97V290.727H242.201V288.97H240.444ZM231.244 288.97H229.487V290.727H231.244V288.97ZM231.244 235V233.243H229.487V235H231.244ZM240.444 235H242.201V233.243H240.444V235ZM240.444 287.212H231.244V290.727H240.444V287.212ZM233.002 288.97V235H229.487V288.97H233.002ZM231.244 236.757H240.444V233.243H231.244V236.757ZM238.686 235V288.97H242.201V235H238.686Z" fill="#CBDBFF" mask="url(#path-21-inside-4_174_417)"/>
<rect x="157.617" y="306.826" width="5.51966" height="1.84" transform="rotate(-90 157.617 306.826)" fill="white"/>
<mask id="path-24-inside-5_174_417" fill="white">
<path d="M231.244 88H240.244V186H231.244V88Z"/>
</mask>
<path d="M240.244 186V187.757H242.002V186H240.244ZM231.244 186H229.487V187.757H231.244V186ZM238.487 88V186H242.002V88H238.487ZM240.244 184.243H231.244V187.757H240.244V184.243ZM233.002 186V88H229.487V186H233.002Z" fill="#CBDBFF" mask="url(#path-24-inside-5_174_417)"/>
<rect x="569.118" y="256.707" width="84.4142" height="23.5895" transform="rotate(-90 569.118 256.707)" fill="white" stroke="#7A7A7A" stroke-width="0.585825"/>
<rect x="545.546" y="256.707" width="84.4142" height="23.5895" transform="rotate(-90 545.546 256.707)" fill="white" stroke="#7A7A7A" stroke-width="0.585825"/>
<rect x="521.975" y="256.707" width="84.4142" height="23.5895" transform="rotate(-90 521.975 256.707)" fill="white" stroke="#7A7A7A" stroke-width="0.585825"/>
<rect x="498.404" y="256.707" width="84.4142" height="23.5895" transform="rotate(-90 498.404 256.707)" fill="white" stroke="#7A7A7A" stroke-width="0.585825"/>
<rect x="474.833" y="256.707" width="84.4142" height="23.5895" transform="rotate(-90 474.833 256.707)" fill="white" stroke="#7A7A7A" stroke-width="0.585825"/>
<rect x="451.624" y="256.707" width="84.4142" height="23.5895" transform="rotate(-90 451.624 256.707)" fill="white" stroke="#7A7A7A" stroke-width="0.585825"/>
<rect x="428.959" y="256.707" width="84.4142" height="23.5895" transform="rotate(-90 428.959 256.707)" fill="white" stroke="#7A7A7A" stroke-width="0.585825"/>
<rect x="406.293" y="256.707" width="84.4142" height="23.5895" transform="rotate(-90 406.293 256.707)" fill="white" stroke="#7A7A7A" stroke-width="0.585825"/>
<mask id="path-34-inside-6_174_417" fill="white">
<path d="M593 257V172H701V257H593Z"/>
</mask>
<path d="M593 257V172H701V257H593Z" fill="white"/>
<path d="M593 257H592.414V257.586H593V257ZM701 257V257.586H701.586V257H701ZM593.586 257V172H592.414V257H593.586ZM700.414 172V257H701.586V172H700.414ZM701 256.414H593V257.586H701V256.414Z" fill="#7A7A7A" mask="url(#path-34-inside-6_174_417)"/>
<rect x="569.069" y="171.707" width="84.4142" height="23.4142" transform="rotate(-90 569.069 171.707)" fill="white" stroke="#7A7A7A" stroke-width="0.585825"/>
<rect x="545.069" y="171.707" width="84.4142" height="23.4142" transform="rotate(-90 545.069 171.707)" fill="white" stroke="#7A7A7A" stroke-width="0.585825"/>
<rect x="522.069" y="171.707" width="84.4142" height="23.4142" transform="rotate(-90 522.069 171.707)" fill="white" stroke="#7A7A7A" stroke-width="0.585825"/>
<rect x="497.13" y="170.827" width="83.5332" height="23.946" transform="rotate(-90 497.13 170.827)" fill="white" stroke="#7A7A7A" stroke-width="0.585825"/>
<rect x="473.212" y="170.827" width="83.5332" height="23.946" transform="rotate(-90 473.212 170.827)" fill="white" stroke="#7A7A7A" stroke-width="0.585825"/>
<rect x="449.293" y="170.827" width="83.5332" height="23.946" transform="rotate(-90 449.293 170.827)" fill="white" stroke="#7A7A7A" stroke-width="0.585825"/>
<path d="M449 171.12V87.0006L498.984 131.133L544.674 171.12H449Z" fill="#FAFBFF"/>
<mask id="path-43-inside-7_174_417" fill="white">
<path d="M592.776 172V87H700.776V172H592.776Z"/>
</mask>
<path d="M592.776 172V87H700.776V172H592.776Z" fill="white"/>
<path d="M592.776 172H592.191V172.586H592.776V172ZM700.776 172V172.586H701.362V172H700.776ZM593.362 172V87H592.191V172H593.362ZM700.191 87V172H701.362V87H700.191ZM700.776 171.414H592.776V172.586H700.776V171.414Z" fill="#7A7A7A" mask="url(#path-43-inside-7_174_417)"/>
<rect x="406" y="172" width="1" height="139" transform="rotate(-90 406 172)" fill="#7A7A7A"/>
<mask id="path-46-inside-8_174_417" fill="white">
<path d="M138.597 141C130.67 141 124.244 134.574 124.244 126.647V87.9999H159.339V126.647C159.339 134.574 152.913 141 144.986 141H138.597Z"/>
</mask>
<path d="M138.597 141C130.67 141 124.244 134.574 124.244 126.647V87.9999H159.339V126.647C159.339 134.574 152.913 141 144.986 141H138.597Z" fill="white"/>
<path d="M138.597 141.586C130.347 141.586 123.659 134.898 123.659 126.647V87.9999H124.83V126.647C124.83 134.251 130.994 140.414 138.597 140.414L138.597 141.586ZM159.925 87.9999V126.647C159.925 134.898 153.237 141.586 144.986 141.586L144.986 140.414C152.59 140.414 158.753 134.251 158.753 126.647V87.9999H159.925ZM159.925 126.647C159.925 134.898 153.237 141.586 144.986 141.586H138.597C130.347 141.586 123.659 134.898 123.659 126.647L124.83 126.647C124.83 134.251 130.994 140.414 138.597 140.414H144.986C152.59 140.414 158.753 134.251 158.753 126.647L159.925 126.647ZM124.244 87.9999H159.339H124.244Z" fill="#7A7A7A" mask="url(#path-46-inside-8_174_417)"/>
<mask id="path-48-inside-9_174_417" fill="white">
<path d="M142.149 135.27C135.821 135.27 130.69 130.139 130.69 123.811V98.0267H153.609V123.811C153.609 130.139 148.478 135.27 142.149 135.27V135.27Z"/>
</mask>
<path d="M142.149 135.27C135.821 135.27 130.69 130.139 130.69 123.811V98.0267H153.609V123.811C153.609 130.139 148.478 135.27 142.149 135.27V135.27Z" fill="white"/>
<path d="M142.149 135.856C135.497 135.856 130.104 130.463 130.104 123.811V98.0267H131.276V123.811C131.276 129.816 136.144 134.684 142.149 134.684L142.149 135.856ZM154.195 98.0267V123.811C154.195 130.463 148.802 135.856 142.149 135.856L142.149 134.684C148.155 134.684 153.023 129.816 153.023 123.811V98.0267H154.195ZM154.195 123.811C154.195 130.463 148.802 135.856 142.149 135.856H142.149C135.497 135.856 130.104 130.463 130.104 123.811L131.276 123.811C131.276 129.816 136.144 134.684 142.149 134.684H142.149C148.155 134.684 153.023 129.816 153.023 123.811L154.195 123.811ZM130.69 98.0267H153.609H130.69Z" fill="#7A7A7A" mask="url(#path-48-inside-9_174_417)"/>
<mask id="path-50-inside-10_174_417" fill="white">
<path d="M127.174 98.7434C125.556 98.7434 124.244 97.432 124.244 95.8143V88.0002H159.339V95.8143C159.339 97.432 158.028 98.7434 156.41 98.7434H127.174Z"/>
</mask>
<path d="M127.174 98.7434C125.556 98.7434 124.244 97.432 124.244 95.8143V88.0002H159.339V95.8143C159.339 97.432 158.028 98.7434 156.41 98.7434H127.174Z" fill="white"/>
<path d="M127.174 99.3292C125.232 99.3292 123.659 97.7555 123.659 95.8143V88.0002H124.83V95.8143C124.83 97.1085 125.879 98.1576 127.174 98.1576L127.174 99.3292ZM159.925 88.0002V95.8143C159.925 97.7555 158.351 99.3292 156.41 99.3292L156.41 98.1576C157.704 98.1576 158.753 97.1085 158.753 95.8143V88.0002H159.925ZM159.925 95.8143C159.925 97.7555 158.351 99.3292 156.41 99.3292H127.174C125.232 99.3292 123.659 97.7555 123.659 95.8143L124.83 95.8143C124.83 97.1085 125.879 98.1576 127.174 98.1576H156.41C157.704 98.1576 158.753 97.1085 158.753 95.8143L159.925 95.8143ZM124.244 88.0002H159.339H124.244Z" fill="#7A7A7A" mask="url(#path-50-inside-10_174_417)"/>
<circle cx="142.149" cy="105.189" r="1.85574" transform="rotate(-90 142.149 105.189)" stroke="#7A7A7A" stroke-width="0.585825"/>
<circle cx="142.149" cy="93.0137" r="1.85574" transform="rotate(-90 142.149 93.0137)" stroke="#7A7A7A" stroke-width="0.585825"/>
<path d="M13.5373 248.707L13.5373 113.5C13.5373 99.5785 24.8229 88.2929 38.7444 88.2929H51.7444C65.6659 88.2929 76.9515 99.5785 76.9515 113.5V248.707H13.5373Z" fill="white" stroke="#7A7A7A" stroke-width="0.585825"/>
<path d="M19.5373 242.707L19.5373 120.5C19.5373 106.579 30.8229 95.2929 44.7444 95.2929C58.6659 95.2929 69.9515 106.579 69.9515 120.5V242.707H19.5373Z" fill="white" stroke="#7A7A7A" stroke-width="0.585825"/>
<rect x="41.5373" y="234.707" width="6.41417" height="6.41417" rx="3.20709" transform="rotate(-90 41.5373 234.707)" fill="white" stroke="#7A7A7A" stroke-width="0.585825"/>
<rect x="42.5373" y="233.707" width="4.41417" height="4.41417" rx="2.20709" transform="rotate(-90 42.5373 233.707)" fill="white" stroke="#7A7A7A" stroke-width="0.585825"/>
<mask id="path-58-inside-11_174_417" fill="white">
<path d="M175.244 88.1717C175.244 87.5246 175.769 87 176.416 87H229.883C230.53 87 231.054 87.5246 231.054 88.1717V136.119C231.054 136.766 230.53 137.29 229.883 137.29H176.416C175.769 137.29 175.244 136.766 175.244 136.119V88.1717Z"/>
</mask>
<path d="M175.244 88.1717C175.244 87.5246 175.769 87 176.416 87H229.883C230.53 87 231.054 87.5246 231.054 88.1717V136.119C231.054 136.766 230.53 137.29 229.883 137.29H176.416C175.769 137.29 175.244 136.766 175.244 136.119V88.1717Z" fill="white"/>
<path d="M175.244 87H231.054H175.244ZM231.64 136.119C231.64 137.089 230.853 137.876 229.883 137.876H176.416C175.445 137.876 174.659 137.089 174.659 136.119H175.83C175.83 136.442 176.092 136.704 176.416 136.704H229.883C230.206 136.704 230.468 136.442 230.468 136.119H231.64ZM176.416 137.876C175.445 137.876 174.659 137.089 174.659 136.119V88.7575C174.659 87.7868 175.445 87 176.416 87C176.092 87 175.83 87.5246 175.83 88.1717V136.119C175.83 136.442 176.092 136.704 176.416 136.704V137.876ZM229.883 87C230.853 87 231.64 87.7868 231.64 88.7575V136.119C231.64 137.089 230.853 137.876 229.883 137.876V136.704C230.206 136.704 230.468 136.442 230.468 136.119V88.1717C230.468 87.5246 230.206 87 229.883 87Z" fill="#7A7A7A" mask="url(#path-58-inside-11_174_417)"/>
<rect x="217.882" y="98.3322" width="28.5457" height="29.4656" rx="4.97952" transform="rotate(90 217.882 98.3322)" fill="white" stroke="#7A7A7A" stroke-width="0.585825"/>
<path d="M207.709 99.5957C207.81 99.7712 207.943 100.18 207.994 100.583C208.019 100.781 208.021 100.957 207.999 101.087C207.977 101.215 207.942 101.246 207.939 101.249C207.935 101.25 207.89 101.265 207.769 101.22C207.645 101.174 207.494 101.084 207.335 100.963C207.012 100.717 206.724 100.398 206.623 100.223C206.449 99.9228 206.552 99.5394 206.852 99.3662C207.152 99.1931 207.535 99.2958 207.709 99.5957Z" fill="#FF9393" stroke="#7A7A7A" stroke-width="0.585825"/>
<path d="M200.809 100.223C200.708 100.398 200.42 100.717 200.097 100.963C199.937 101.084 199.786 101.174 199.662 101.22C199.541 101.265 199.497 101.25 199.492 101.249C199.489 101.246 199.454 101.215 199.433 101.087C199.41 100.957 199.413 100.781 199.438 100.583C199.489 100.18 199.622 99.7713 199.723 99.5957C199.896 99.2958 200.28 99.1931 200.579 99.3662C200.879 99.5394 200.982 99.9229 200.809 100.223Z" fill="#6E9AD0" stroke="#7A7A7A" stroke-width="0.585825"/>
<path d="M201.936 98.3322H205.589L204.872 106.441C204.821 107.016 204.34 107.457 203.762 107.457C203.185 107.457 202.704 107.016 202.653 106.441L201.936 98.3322Z" fill="white" stroke="#7A7A7A" stroke-width="0.585825"/>
<rect x="396.266" y="679.492" width="84.0214" height="13.4925" transform="rotate(-180 396.266 679.492)" fill="white"/>
<mask id="path-65-inside-12_174_417" fill="white">
<path d="M396.266 751.248H382.543C343.718 751.248 312.244 719.774 312.244 680.949V668.453H396.266V751.248Z"/>
</mask>
<path d="M396.266 751.248H382.543C343.718 751.248 312.244 719.774 312.244 680.949V668.453H396.266V751.248Z" fill="white"/>
<path d="M397.438 751.834H382.543C343.395 751.834 311.659 720.098 311.659 680.949L312.83 680.949C312.83 719.451 344.042 750.662 382.543 750.662H395.094L397.438 751.834ZM312.244 668.453H396.266H312.244ZM397.438 668.453L397.438 751.834L395.094 750.662V668.453H397.438ZM382.543 751.834C343.395 751.834 311.659 720.098 311.659 680.949V668.453H312.83V680.949C312.83 719.451 344.042 750.662 382.543 750.662L382.543 751.834Z" fill="#7A7A7A" mask="url(#path-65-inside-12_174_417)"/>
<rect x="260.244" y="71.7556" width="84.0214" height="13.4925" fill="white"/>
<mask id="path-68-inside-13_174_417" fill="white">
<path d="M260.244 0L273.967 0C312.792 0 344.266 31.474 344.266 70.299V82.7948H260.244V0Z"/>
</mask>
<path d="M260.244 0L273.967 0C312.792 0 344.266 31.474 344.266 70.299V82.7948H260.244V0Z" fill="white"/>
<path d="M259.073 -0.585825H273.967C313.115 -0.585825 344.852 31.1504 344.852 70.299L343.68 70.299C343.68 31.7975 312.468 0.585825 273.967 0.585825H261.416L259.073 -0.585825ZM344.266 82.7948H260.244H344.266ZM259.073 82.7948V-0.585825L261.416 0.585825V82.7948H259.073ZM273.967 -0.585825C313.115 -0.585825 344.852 31.1504 344.852 70.299V82.7948H343.68V70.299C343.68 31.7975 312.468 0.585825 273.967 0.585825L273.967 -0.585825Z" fill="#7A7A7A" mask="url(#path-68-inside-13_174_417)"/>
<rect x="344.266" y="71.7556" width="61.3295" height="13.4925" fill="white"/>
<rect x="345.785" y="73.8884" width="58.2905" height="9.2269" fill="white" stroke="#7A7A7A" stroke-width="0.585825"/>
<rect x="461.537" y="664.293" width="181.414" height="12.4142" fill="white" stroke="#7A7A7A" stroke-width="0.585825"/>
<mask id="path-73-inside-14_174_417" fill="white">
<path d="M636.976 267V274.36H472V267H636.976Z"/>
</mask>
<path d="M636.976 267V274.36H472V267H636.976Z" fill="white"/>
<path d="M636.976 274.36V274.945H637.562V274.36H636.976ZM472 274.36H471.414V274.945H472V274.36ZM636.39 267V274.36H637.562V267H636.39ZM636.976 273.774H472V274.945H636.976V273.774ZM472.586 274.36V267H471.414V274.36H472.586Z" fill="#7A7A7A" mask="url(#path-73-inside-14_174_417)"/>
<mask id="path-75-inside-15_174_417" fill="white">
<path d="M654.852 382.409C657.117 382.409 658.953 384.245 658.953 386.51V582.71C658.953 584.974 657.117 586.81 654.852 586.81H445.101C442.836 586.81 441 584.974 441 582.71V386.51C441 384.245 442.836 382.409 445.101 382.409H654.852Z"/>
</mask>
<path d="M654.852 382.409C657.117 382.409 658.953 384.245 658.953 386.51V582.71C658.953 584.974 657.117 586.81 654.852 586.81H445.101C442.836 586.81 441 584.974 441 582.71V386.51C441 384.245 442.836 382.409 445.101 382.409H654.852Z" fill="white"/>
<path d="M658.367 386.51V582.71H659.539V386.51H658.367ZM654.852 586.225H445.101V587.396H654.852V586.225ZM441.586 582.71V386.51H440.414V582.71H441.586ZM445.101 382.995H654.852V381.823H445.101V382.995ZM441.586 386.51C441.586 384.568 443.159 382.995 445.101 382.995V381.823C442.512 381.823 440.414 383.921 440.414 386.51H441.586ZM445.101 586.225C443.159 586.225 441.586 584.651 441.586 582.71H440.414C440.414 585.298 442.512 587.396 445.101 587.396V586.225ZM658.367 582.71C658.367 584.651 656.793 586.225 654.852 586.225V587.396C657.44 587.396 659.539 585.298 659.539 582.71H658.367ZM659.539 386.51C659.539 383.921 657.44 381.823 654.852 381.823V382.995C656.793 382.995 658.367 384.568 658.367 386.51H659.539Z" fill="#7A7A7A" mask="url(#path-75-inside-15_174_417)"/>
<mask id="path-77-inside-16_174_417" fill="white">
<path d="M648.641 388.62C650.906 388.62 652.742 390.456 652.742 392.721V576.499C652.742 578.763 650.906 580.599 648.641 580.599H451.312C449.047 580.599 447.211 578.763 447.211 576.499V392.721C447.211 390.456 449.047 388.62 451.312 388.62H648.641Z"/>
</mask>
<path d="M648.641 388.62C650.906 388.62 652.742 390.456 652.742 392.721V576.499C652.742 578.763 650.906 580.599 648.641 580.599H451.312C449.047 580.599 447.211 578.763 447.211 576.499V392.721C447.211 390.456 449.047 388.62 451.312 388.62H648.641Z" fill="white"/>
<path d="M652.156 392.721V576.499H653.328V392.721H652.156ZM648.641 580.014H451.312V581.185H648.641V580.014ZM447.797 576.499V392.721H446.625V576.499H447.797ZM451.312 389.206H648.641V388.034H451.312V389.206ZM447.797 392.721C447.797 390.78 449.371 389.206 451.312 389.206V388.034C448.724 388.034 446.625 390.133 446.625 392.721H447.797ZM451.312 580.014C449.371 580.014 447.797 578.44 447.797 576.499H446.625C446.625 579.087 448.724 581.185 451.312 581.185V580.014ZM652.156 576.499C652.156 578.44 650.582 580.014 648.641 580.014V581.185C651.23 581.185 653.328 579.087 653.328 576.499H652.156ZM653.328 392.721C653.328 390.133 651.229 388.034 648.641 388.034V389.206C650.582 389.206 652.156 390.78 652.156 392.721H653.328Z" fill="#7A7A7A" mask="url(#path-77-inside-16_174_417)"/>
<rect x="652.906" y="357.414" width="55.8787" height="55.8787" rx="9.08029" transform="rotate(45 652.906 357.414)" fill="white" stroke="black" stroke-width="0.585825"/>
<rect x="652.943" y="364.19" width="46.2435" height="54.0315" rx="9.08029" transform="rotate(45 652.943 364.19)" fill="white" stroke="black" stroke-width="0.585825"/>
<rect x="654.01" y="372.66" width="34.3529" height="6.79628" rx="3.39814" transform="rotate(45 654.01 372.66)" fill="white" stroke="black" stroke-width="0.585825"/>
<rect x="628.734" y="614.506" width="156.978" height="55.8787" rx="9.08029" transform="rotate(180 628.734 614.506)" fill="white" stroke="black" stroke-width="0.585825"/>
<rect x="623.652" y="609.515" width="146.896" height="54.0315" rx="9.08029" transform="rotate(180 623.652 609.515)" fill="white" stroke="black" stroke-width="0.585825"/>
<rect x="607.99" y="604.907" width="34.3529" height="6.79628" rx="3.39814" transform="rotate(180 607.99 604.907)" fill="white" stroke="black" stroke-width="0.585825"/>
<rect x="565.667" y="604.907" width="34.3529" height="6.79628" rx="3.39814" transform="rotate(180 565.667 604.907)" fill="white" stroke="black" stroke-width="0.585825"/>
<rect x="523.346" y="604.907" width="34.3529" height="6.79628" rx="3.39814" transform="rotate(180 523.346 604.907)" fill="white" stroke="black" stroke-width="0.585825"/>
<rect x="611.795" y="511.42" width="123.071" height="54.1847" rx="11.4236" transform="rotate(180 611.795 511.42)" fill="white" stroke="black" stroke-width="0.585825"/>
<mask id="path-88-inside-17_174_417" fill="white">
<path d="M13 258H86V469.97C86 473.853 82.8526 477 78.9701 477H13V258Z"/>
</mask>
<path d="M13 258H86H13ZM86.5858 469.97C86.5858 474.176 83.1761 477.586 78.9701 477.586H13V476.414H78.9701C82.5291 476.414 85.4142 473.529 85.4142 469.97L86.5858 469.97ZM13 477V258V477ZM86.5858 258V469.97C86.5858 474.176 83.1761 477.586 78.9701 477.586L78.9701 476.414C82.5291 476.414 85.4142 473.529 85.4142 469.97V258H86.5858Z" fill="#7A7A7A" mask="url(#path-88-inside-17_174_417)"/>
<mask id="path-90-inside-18_174_417" fill="white">
<path d="M13 258L13 316H223.97C227.853 316 231 312.853 231 308.97V258H13Z"/>
</mask>
<path d="M13 258L13 316L13 258ZM223.97 316.586C228.176 316.586 231.586 313.176 231.586 308.97V258H230.414V308.97C230.414 312.529 227.529 315.414 223.97 315.414L223.97 316.586ZM231 258H13H231ZM13 316.586H223.97C228.176 316.586 231.586 313.176 231.586 308.97L230.414 308.97C230.414 312.529 227.529 315.414 223.97 315.414H13V316.586Z" fill="#7A7A7A" mask="url(#path-90-inside-18_174_417)"/>
<rect x="189.758" y="272.543" width="34.6201" height="29.4656" rx="4.97952" transform="rotate(90 189.758 272.543)" fill="white" stroke="#7A7A7A" stroke-width="0.585825"/>
<path d="M182.999 278.244C182.627 278.244 182.303 278.14 182.08 277.988C181.856 277.835 181.758 277.653 181.758 277.489C181.758 277.325 181.856 277.143 182.08 276.99C182.303 276.838 182.627 276.734 182.999 276.734C183.371 276.734 183.695 276.838 183.918 276.99C184.142 277.143 184.239 277.325 184.239 277.489C184.239 277.653 184.142 277.835 183.918 277.988C183.695 278.14 183.371 278.244 182.999 278.244Z" stroke="#7A7A7A" stroke-width="0.585825"/>
<path d="M173.808 272.543H177.471L176.729 282.679C176.687 283.25 176.212 283.692 175.639 283.692C175.067 283.692 174.591 283.25 174.549 282.679L173.808 272.543Z" fill="white" stroke="#7A7A7A" stroke-width="0.585825"/>
<line x1="197.411" y1="307.058" x2="223.169" y2="307.058" stroke="#7A7A7A" stroke-width="0.585825"/>
<line x1="197.411" y1="301.19" x2="223.169" y2="301.19" stroke="#7A7A7A" stroke-width="0.585825"/>
<line x1="197.411" y1="295.323" x2="223.169" y2="295.323" stroke="#7A7A7A" stroke-width="0.585825"/>
<line x1="197.411" y1="289.455" x2="223.169" y2="289.455" stroke="#7A7A7A" stroke-width="0.585825"/>
<line x1="197.411" y1="283.587" x2="223.169" y2="283.587" stroke="#7A7A7A" stroke-width="0.585825"/>
<path d="M197.673 277.908H223.169" stroke="#7A7A7A" stroke-width="0.585825"/>
<line x1="197.673" y1="271.957" x2="223.169" y2="271.957" stroke="#7A7A7A" stroke-width="0.585825"/>
<path d="M19.2399 344.155H82.2286V404.898H19.2399C17.784 404.898 16.6037 403.718 16.6037 402.262V346.791C16.6037 345.335 17.784 344.155 19.2399 344.155Z" fill="white" stroke="#7A7A7A" stroke-width="0.585825"/>
<rect x="26.5878" y="347.834" width="22.0099" height="25.7859" rx="2.63621" fill="white" stroke="#7A7A7A" stroke-width="0.585825"/>
<line x1="35" y1="361.387" x2="40.7803" y2="361.387" stroke="#7A7A7A" stroke-width="0.585825"/>
<line x1="37.8599" y1="364.746" x2="37.8599" y2="358" stroke="#7A7A7A" stroke-width="0.585825"/>
<line y1="-0.292913" x2="5.71079" y2="-0.292913" transform="matrix(0.650649 -0.759379 0.650649 0.759379 42.0593 354.605)" stroke="#7A7A7A" stroke-width="0.585825"/>
<line y1="-0.292913" x2="5.71079" y2="-0.292913" transform="matrix(-0.650649 -0.759379 0.650649 -0.759379 32.6379 354.332)" stroke="#7A7A7A" stroke-width="0.585825"/>
<line y1="-0.292913" x2="5.71079" y2="-0.292913" transform="matrix(0.650649 -0.759379 0.650649 0.759379 28.9224 370.891)" stroke="#7A7A7A" stroke-width="0.585825"/>
<line y1="-0.292913" x2="5.71079" y2="-0.292913" transform="matrix(0.650649 0.759379 -0.650649 0.759379 42.0593 366.553)" stroke="#7A7A7A" stroke-width="0.585825"/>
<rect x="26.5878" y="375.433" width="22.0099" height="25.7859" rx="2.63621" fill="white" stroke="#7A7A7A" stroke-width="0.585825"/>
<line x1="35" y1="388.387" x2="40.7803" y2="388.387" stroke="#7A7A7A" stroke-width="0.585825"/>
<line x1="37.8599" y1="391.746" x2="37.8599" y2="385" stroke="#7A7A7A" stroke-width="0.585825"/>
<line y1="-0.292913" x2="5.71079" y2="-0.292913" transform="matrix(0.650649 -0.759379 0.650649 0.759379 42.0593 382.203)" stroke="#7A7A7A" stroke-width="0.585825"/>
<line y1="-0.292913" x2="5.71079" y2="-0.292913" transform="matrix(-0.650649 -0.759379 0.650649 -0.759379 32.6379 381.93)" stroke="#7A7A7A" stroke-width="0.585825"/>
<line y1="-0.292913" x2="5.71079" y2="-0.292913" transform="matrix(0.650649 -0.759379 0.650649 0.759379 28.9224 398.489)" stroke="#7A7A7A" stroke-width="0.585825"/>
<line y1="-0.292913" x2="5.71079" y2="-0.292913" transform="matrix(0.650649 0.759379 -0.650649 0.759379 42.0593 394.152)" stroke="#7A7A7A" stroke-width="0.585825"/>
<rect x="50.76" y="347.834" width="22.0099" height="25.7859" rx="2.63621" fill="white" stroke="#7A7A7A" stroke-width="0.585825"/>
<line x1="59" y1="361.387" x2="64.7803" y2="361.387" stroke="#7A7A7A" stroke-width="0.585825"/>
<line x1="61.8599" y1="364.746" x2="61.8599" y2="358" stroke="#7A7A7A" stroke-width="0.585825"/>
<line y1="-0.292913" x2="5.71079" y2="-0.292913" transform="matrix(0.650649 -0.759379 0.650649 0.759379 66.2317 354.605)" stroke="#7A7A7A" stroke-width="0.585825"/>
<line y1="-0.292913" x2="5.71079" y2="-0.292913" transform="matrix(-0.650649 -0.759379 0.650649 -0.759379 56.8103 354.332)" stroke="#7A7A7A" stroke-width="0.585825"/>
<line y1="-0.292913" x2="5.71079" y2="-0.292913" transform="matrix(0.650649 -0.759379 0.650649 0.759379 53.0945 370.891)" stroke="#7A7A7A" stroke-width="0.585825"/>
<line y1="-0.292913" x2="5.71079" y2="-0.292913" transform="matrix(0.650649 0.759379 -0.650649 0.759379 66.2317 366.553)" stroke="#7A7A7A" stroke-width="0.585825"/>
<rect x="50.76" y="375.433" width="22.0099" height="25.7859" rx="2.63621" fill="white" stroke="#7A7A7A" stroke-width="0.585825"/>
<line x1="59" y1="388.387" x2="64.7803" y2="388.387" stroke="#7A7A7A" stroke-width="0.585825"/>
<line x1="61.8597" y1="391.746" x2="61.8597" y2="385" stroke="#7A7A7A" stroke-width="0.585825"/>
<line y1="-0.292913" x2="5.71079" y2="-0.292913" transform="matrix(0.650649 -0.759379 0.650649 0.759379 66.2317 382.203)" stroke="#7A7A7A" stroke-width="0.585825"/>
<line y1="-0.292913" x2="5.71079" y2="-0.292913" transform="matrix(-0.650649 -0.759379 0.650649 -0.759379 56.8103 381.93)" stroke="#7A7A7A" stroke-width="0.585825"/>
<line y1="-0.292913" x2="5.71079" y2="-0.292913" transform="matrix(0.650649 -0.759379 0.650649 0.759379 53.0945 398.489)" stroke="#7A7A7A" stroke-width="0.585825"/>
<line y1="-0.292913" x2="5.71079" y2="-0.292913" transform="matrix(0.650649 0.759379 -0.650649 0.759379 66.2317 394.152)" stroke="#7A7A7A" stroke-width="0.585825"/>
<line x1="44.2028" y1="454.809" x2="54.8094" y2="444.203" stroke="#7A7A7A" stroke-width="0.585825"/>
<line x1="55.204" y1="454.616" x2="44.5974" y2="444.009" stroke="#7A7A7A" stroke-width="0.585825"/>
<line x1="266.53" y1="479.831" x2="275.53" y2="454.831" stroke="black"/>
<line x1="275.47" y1="454.831" x2="284.471" y2="479.83" stroke="black"/>
<line x1="284.53" y1="479.831" x2="293.53" y2="454.831" stroke="black"/>
<line x1="293.47" y1="454.831" x2="302.471" y2="479.83" stroke="black"/>
<line x1="302.53" y1="479.831" x2="311.53" y2="454.831" stroke="black"/>
<line x1="311.47" y1="454.831" x2="320.471" y2="479.83" stroke="black"/>
<line x1="320.53" y1="479.831" x2="329.53" y2="454.831" stroke="black"/>
<line x1="329.47" y1="454.831" x2="338.471" y2="479.83" stroke="black"/>
<line x1="338.53" y1="479.831" x2="347.53" y2="454.831" stroke="black"/>
<line x1="347.47" y1="454.831" x2="356.471" y2="479.83" stroke="black"/>
<line x1="356.53" y1="479.831" x2="365.53" y2="454.831" stroke="black"/>
<line x1="365.47" y1="454.831" x2="374.471" y2="479.83" stroke="black"/>
<line x1="14" y1="423.5" x2="86" y2="423.5" stroke="#7A7A7A"/>
</svg>
