<svg width="602" height="716" viewBox="0 0 602 716" fill="none" xmlns="http://www.w3.org/2000/svg">
<rect x="1.17165" y="714.073" width="712.146" height="599.299" rx="8.20155" transform="rotate(-90 1.17165 714.073)" fill="#DCE6FF" stroke="#96B7FF" stroke-width="2.3433"/>
<path d="M11.4075 694.832V21.1685C11.4075 16.6389 15.0795 12.9669 19.609 12.9669L582.033 12.9669C586.563 12.9669 590.235 16.6389 590.235 21.1685V694.832C590.235 699.362 586.563 703.034 582.033 703.034L19.6091 703.034C15.0795 703.034 11.4075 699.362 11.4075 694.832Z" fill="#FAFBFF" stroke="#96B7FF" stroke-width="2.3433"/>
<rect x="204.707" y="14.2929" width="73.4142" height="191.414" rx="6.70709" transform="rotate(90 204.707 14.2929)" fill="white" stroke="black" stroke-width="0.585825"/>
<mask id="path-4-inside-1_167_19" fill="white">
<path d="M138 88V88C138 95.732 131.732 102 124 102H94C86.268 102 80 95.732 80 88V88H138Z"/>
</mask>
<path d="M138 88V88C138 95.732 131.732 102 124 102H94C86.268 102 80 95.732 80 88V88H138Z" fill="white"/>
<path d="M138.586 88V88C138.586 96.0555 132.056 102.586 124 102.586L124 101.414C131.408 101.414 137.414 95.4084 137.414 88V88H138.586ZM94 102.586C85.9445 102.586 79.4142 96.0555 79.4142 88V88H80.5858V88C80.5858 95.4084 86.5916 101.414 94 101.414L94 102.586ZM80 88H138H80ZM138.586 88C138.586 96.0555 132.056 102.586 124 102.586H94C85.9445 102.586 79.4142 96.0555 79.4142 88L80.5858 88C80.5858 95.4084 86.5916 101.414 94 101.414H124C131.408 101.414 137.414 95.4084 137.414 88L138.586 88Z" fill="black" mask="url(#path-4-inside-1_167_19)"/>
<mask id="path-6-inside-2_167_19" fill="white">
<path d="M136 101C137.105 101 138 101.895 138 103V103C138 104.105 137.105 105 136 105H82C80.8954 105 80 104.105 80 103V103C80 101.895 80.8954 101 82 101H136Z"/>
</mask>
<path d="M136 101C137.105 101 138 101.895 138 103V103C138 104.105 137.105 105 136 105H82C80.8954 105 80 104.105 80 103V103C80 101.895 80.8954 101 82 101H136Z" fill="white"/>
<path d="M136 100.41C137.428 100.41 138.586 101.568 138.586 102.996V103C138.586 104.428 137.428 105.586 136 105.586L136 104.414C136.781 104.414 137.414 103.781 137.414 103V103C137.414 102.221 136.781 101.59 136 101.59L136 100.41ZM82 105.586C80.5719 105.586 79.4142 104.428 79.4142 103V102.996C79.4142 101.568 80.5719 100.41 82 100.41L82 101.59C81.219 101.59 80.5858 102.221 80.5858 103V103C80.5858 103.781 81.219 104.414 82 104.414L82 105.586ZM79.4142 102.996C79.4142 101.568 80.5719 100.41 82 100.41H136C137.428 100.41 138.586 101.568 138.586 102.996L137.414 103C137.414 102.221 136.781 101.59 136 101.59H82C81.219 101.59 80.5858 102.221 80.5858 103L79.4142 102.996ZM138.586 103C138.586 104.428 137.428 105.586 136 105.586H82C80.5719 105.586 79.4142 104.428 79.4142 103L80.5858 103C80.5858 103.781 81.219 104.414 82 104.414H136C136.781 104.414 137.414 103.781 137.414 103L138.586 103Z" fill="black" mask="url(#path-6-inside-2_167_19)"/>
<mask id="path-8-inside-3_167_19" fill="white">
<path d="M481 315H472V102H481V315Z"/>
</mask>
<path d="M472 102V100.243H470.243V102H472ZM481 102H482.757V100.243H481V102ZM473.757 315V102H470.243V315H473.757ZM472 103.757H481V100.243H472V103.757ZM479.243 102V315H482.757V102H479.243Z" fill="#CBDBFF" mask="url(#path-8-inside-3_167_19)"/>
<path d="M588.163 384.703L588.131 390.376L473.855 315.169L478.154 313.35L588.163 384.703Z" stroke="#CBDBFF" stroke-width="1.75748"/>
<mask id="path-11-inside-4_167_19" fill="white">
<path d="M368 14H377V228H368V14Z"/>
</mask>
<path d="M377 228V229.757H378.757V228H377ZM368 228H366.243V229.757H368V228ZM375.243 14V228H378.757V14H375.243ZM377 226.243H368V229.757H377V226.243ZM369.757 228V14H366.243V228H369.757Z" fill="#CBDBFF" mask="url(#path-11-inside-4_167_19)"/>
<mask id="path-13-inside-5_167_19" fill="white">
<path d="M377 702H368L368 382H377L377 702Z"/>
</mask>
<path d="M368 382V380.243H366.243V382H368ZM377 382H378.757V380.243H377V382ZM369.757 702L369.757 382H366.243L366.243 702H369.757ZM368 383.757H377V380.243H368V383.757ZM375.243 382L375.243 702H378.757L378.757 382H375.243Z" fill="#CBDBFF" mask="url(#path-13-inside-5_167_19)"/>
<mask id="path-15-inside-6_167_19" fill="white">
<path d="M13 278V269H283V278H13Z"/>
</mask>
<path d="M283 269H284.757V267.243H283V269ZM283 278V279.757H284.757V278H283ZM13 270.757H283V267.243H13V270.757ZM281.243 269V278H284.757V269H281.243ZM283 276.243H13V279.757H283V276.243Z" fill="#CBDBFF" mask="url(#path-15-inside-6_167_19)"/>
<rect x="279.134" y="12.4142" width="124.414" height="60.4142" rx="9.08029" transform="rotate(45 279.134 12.4142)" fill="white" stroke="black" stroke-width="0.585825"/>
<rect x="282.669" y="23.0207" width="103.414" height="58.4142" rx="9.08029" transform="rotate(45 282.669 23.0207)" fill="white" stroke="black" stroke-width="0.585825"/>
<rect x="284.791" y="35.0417" width="37.3633" height="7.43232" rx="3.71616" transform="rotate(45 284.791 35.0417)" fill="white" stroke="black" stroke-width="0.585825"/>
<rect x="316.61" y="66.8615" width="37.3633" height="7.43232" rx="3.71616" transform="rotate(45 316.61 66.8615)" fill="white" stroke="black" stroke-width="0.585825"/>
<rect x="481.293" y="290.437" width="107.502" height="23.946" fill="white" stroke="#7A7A7A" stroke-width="0.585825"/>
<rect x="481.293" y="266.518" width="107.502" height="23.946" fill="white" stroke="#7A7A7A" stroke-width="0.585825"/>
<rect x="481.293" y="242.6" width="107.502" height="23.946" fill="white" stroke="#7A7A7A" stroke-width="0.585825"/>
<rect x="481.293" y="218.681" width="107.502" height="23.946" fill="white" stroke="#7A7A7A" stroke-width="0.585825"/>
<rect x="481.293" y="194.763" width="107.502" height="23.946" fill="white" stroke="#7A7A7A" stroke-width="0.585825"/>
<rect x="481.293" y="170.844" width="107.502" height="23.946" fill="white" stroke="#7A7A7A" stroke-width="0.585825"/>
<rect x="481.293" y="147.293" width="107.502" height="23.946" fill="white" stroke="#7A7A7A" stroke-width="0.585825"/>
<rect x="481.293" y="124.293" width="107.502" height="23.946" fill="white" stroke="#7A7A7A" stroke-width="0.585825"/>
<rect x="481.293" y="101.293" width="107.502" height="23.946" fill="white" stroke="#7A7A7A" stroke-width="0.585825"/>
<rect x="0.292913" y="581.707" width="212.414" height="12.4142" transform="rotate(-90 0.292913 581.707)" fill="white" stroke="#7A7A7A" stroke-width="0.585825"/>
<rect x="0.292913" y="237.707" width="92.4142" height="12.4142" transform="rotate(-90 0.292913 237.707)" fill="white" stroke="#7A7A7A" stroke-width="0.585825"/>
<mask id="path-32-inside-7_167_19" fill="white">
<path d="M199 278V285H84V278H199Z"/>
</mask>
<path d="M199 278V285H84V278H199Z" fill="white"/>
<path d="M199 285V285.586H199.586V285H199ZM84 285H83.4142V285.586H84V285ZM198.414 278V285H199.586V278H198.414ZM199 284.414H84V285.586L199 285.586V284.414ZM84.5858 285V278H83.4142V285H84.5858Z" fill="#7A7A7A" mask="url(#path-32-inside-7_167_19)"/>
<mask id="path-34-inside-8_167_19" fill="white">
<path d="M376.271 224L377.158 227.843L292.887 247.299L292 243.455L376.271 224Z"/>
</mask>
<path d="M376.271 224L377.158 227.843L292.887 247.299L292 243.455L376.271 224Z" fill="white"/>
<path d="M376.271 224L376.842 223.868L376.709 223.293L376.138 223.425L376.271 224ZM377.158 227.843L377.29 228.414L377.861 228.282L377.729 227.712L377.158 227.843ZM292.887 247.299L292.317 247.431L292.448 248.001L293.019 247.87L292.887 247.299ZM292 243.455L291.867 242.881L291.297 243.012L291.429 243.587L292 243.455ZM375.7 224.132L376.587 227.975L377.729 227.712L376.842 223.868L375.7 224.132ZM377.027 227.273L292.756 246.728L293.019 247.87L377.29 228.414L377.027 227.273ZM293.458 247.167L292.571 243.324L291.429 243.587L292.317 247.431L293.458 247.167ZM292.133 244.03L376.404 224.575L376.138 223.425L291.867 242.881L292.133 244.03Z" fill="#7A7A7A" mask="url(#path-34-inside-8_167_19)"/>
<mask id="path-36-inside-9_167_19" fill="white">
<path d="M479.988 357.063L480.875 360.906L370.887 386.299L370 382.456L479.988 357.063Z"/>
</mask>
<path d="M479.988 357.063L480.875 360.906L370.887 386.299L370 382.456L479.988 357.063Z" fill="white"/>
<path d="M479.988 357.063L480.559 356.931L480.426 356.356L479.855 356.488L479.988 357.063ZM480.875 360.906L481.007 361.477L481.578 361.345L481.446 360.775L480.875 360.906ZM370.887 386.299L370.317 386.431L370.448 387.002L371.019 386.87L370.887 386.299ZM370 382.456L369.867 381.881L369.297 382.013L369.429 382.587L370 382.456ZM479.417 357.195L480.305 361.038L481.446 360.775L480.559 356.931L479.417 357.195ZM480.744 360.336L370.756 385.728L371.019 386.87L481.007 361.477L480.744 360.336ZM371.458 386.167L370.571 382.324L369.429 382.587L370.317 386.431L371.458 386.167ZM370.133 383.031L480.121 357.638L479.855 356.488L369.867 381.881L370.133 383.031Z" fill="#7A7A7A" mask="url(#path-36-inside-9_167_19)"/>
<mask id="path-38-inside-10_167_19" fill="white">
<path d="M480 102V14.0005H577C583.627 14.0005 589 19.3731 589 26.0005V102H480Z"/>
</mask>
<path d="M480 102V14.0005H577C583.627 14.0005 589 19.3731 589 26.0005V102H480Z" fill="white"/>
<path d="M479.414 102.586V14.0005H480.586V101.415L479.414 102.586ZM589 14.0005V102V14.0005ZM589 102.586H479.414L480.586 101.415H589V102.586ZM480 14.0005H589H480Z" fill="#7A7A7A" mask="url(#path-38-inside-10_167_19)"/>
<line x1="480.878" y1="100.734" x2="588.693" y2="51.4488" stroke="#7A7A7A" stroke-width="0.585825"/>
<line x1="480.781" y1="99.8061" x2="557.056" y2="13.8056" stroke="#7A7A7A" stroke-width="0.585825"/>
<mask id="path-42-inside-11_167_19" fill="white">
<path d="M481 102L377 102V14.0005L481 14.0005V102Z"/>
</mask>
<path d="M481 102L377 102V14.0005L481 14.0005V102Z" fill="white"/>
<path d="M481 102V102.586H481.585V102H481ZM481 101.415L377 101.415V102.586L481 102.586V101.415ZM480.414 14.0005V102H481.585V14.0005H480.414Z" fill="#7A7A7A" mask="url(#path-42-inside-11_167_19)"/>
<line x1="480.76" y1="100.168" x2="420.569" y2="14.1683" stroke="#7A7A7A" stroke-width="0.585825"/>
<line x1="480.851" y1="101.253" x2="376.851" y2="40.2531" stroke="#7A7A7A" stroke-width="0.585825"/>
<rect x="226.707" y="487.293" width="214.414" height="170.414" rx="13.7669" transform="rotate(90 226.707 487.293)" fill="white" stroke="black" stroke-width="0.585825"/>
<rect x="222.707" y="490.293" width="207.414" height="162.414" rx="13.7669" transform="rotate(90 222.707 490.293)" fill="white" stroke="black" stroke-width="0.585825"/>
<line x1="60" y1="613.5" x2="223" y2="613.5" stroke="black"/>
<rect x="217.707" y="645.293" width="43.4142" height="151.414" rx="13.7669" transform="rotate(90 217.707 645.293)" fill="white" stroke="black" stroke-width="0.585825"/>
<mask id="path-50-inside-12_167_19" fill="white">
<path d="M521.671 663.067C521.671 655.14 528.097 648.714 536.024 648.714H586.587V691.699H536.024C528.097 691.699 521.671 685.273 521.671 677.346V663.067Z"/>
</mask>
<path d="M521.671 663.067C521.671 655.14 528.097 648.714 536.024 648.714H586.587V691.699H536.024C528.097 691.699 521.671 685.273 521.671 677.346V663.067Z" fill="white"/>
<path d="M521.085 663.067C521.085 654.816 527.773 648.128 536.024 648.128H586.587V649.3H536.024C528.42 649.3 522.257 655.463 522.257 663.067L521.085 663.067ZM586.587 692.285H536.024C527.773 692.285 521.085 685.596 521.085 677.346L522.257 677.346C522.257 684.949 528.42 691.113 536.024 691.113H586.587V692.285ZM536.024 692.285C527.773 692.285 521.085 685.596 521.085 677.346V663.067C521.085 654.816 527.773 648.128 536.024 648.128L536.024 649.3C528.42 649.3 522.257 655.463 522.257 663.067V677.346C522.257 684.949 528.42 691.113 536.024 691.113L536.024 692.285ZM586.587 648.714V691.699V648.714Z" fill="#7A7A7A" mask="url(#path-50-inside-12_167_19)"/>
<mask id="path-52-inside-13_167_19" fill="white">
<path d="M528.688 670.645C528.688 662.893 534.973 656.609 542.724 656.609H574.305V684.681H542.724C534.973 684.681 528.688 678.397 528.688 670.645V670.645Z"/>
</mask>
<path d="M528.688 670.645C528.688 662.893 534.973 656.609 542.724 656.609H574.305V684.681H542.724C534.973 684.681 528.688 678.397 528.688 670.645V670.645Z" fill="white"/>
<path d="M528.103 670.645C528.103 662.569 534.649 656.023 542.724 656.023H574.305V657.195H542.724C535.296 657.195 529.274 663.217 529.274 670.645L528.103 670.645ZM574.305 685.267H542.724C534.649 685.267 528.103 678.72 528.103 670.645L529.274 670.645C529.274 678.073 535.296 684.095 542.724 684.095H574.305V685.267ZM542.724 685.267C534.649 685.267 528.103 678.72 528.103 670.645V670.645C528.103 662.569 534.649 656.023 542.724 656.023L542.724 657.195C535.296 657.195 529.274 663.217 529.274 670.645V670.645C529.274 678.073 535.296 684.095 542.724 684.095L542.724 685.267ZM574.305 656.609V684.681V656.609Z" fill="#7A7A7A" mask="url(#path-52-inside-13_167_19)"/>
<mask id="path-54-inside-14_167_19" fill="white">
<path d="M573.428 651.643C573.428 650.025 574.739 648.714 576.357 648.714H586.586V691.699H576.357C574.739 691.699 573.428 690.387 573.428 688.77V651.643Z"/>
</mask>
<path d="M573.428 651.643C573.428 650.025 574.739 648.714 576.357 648.714H586.586V691.699H576.357C574.739 691.699 573.428 690.387 573.428 688.77V651.643Z" fill="white"/>
<path d="M572.842 651.643C572.842 649.702 574.416 648.128 576.357 648.128H586.586V649.3H576.357C575.063 649.3 574.014 650.349 574.014 651.643L572.842 651.643ZM586.586 692.285H576.357C574.416 692.285 572.842 690.711 572.842 688.77L574.014 688.77C574.014 690.064 575.063 691.113 576.357 691.113H586.586V692.285ZM576.357 692.285C574.416 692.285 572.842 690.711 572.842 688.77V651.643C572.842 649.702 574.416 648.128 576.357 648.128L576.357 649.3C575.063 649.3 574.014 650.349 574.014 651.643V688.77C574.014 690.064 575.063 691.113 576.357 691.113L576.357 692.285ZM586.586 648.714V691.699V648.714Z" fill="#7A7A7A" mask="url(#path-54-inside-14_167_19)"/>
<circle cx="565.533" cy="670.644" r="2.33882" stroke="#7A7A7A" stroke-width="0.585825"/>
<circle cx="580.446" cy="670.644" r="2.33882" stroke="#7A7A7A" stroke-width="0.585825"/>
<rect x="377.293" y="701.517" width="69.3288" height="62.4142" rx="0.878738" transform="rotate(-90 377.293 701.517)" fill="white" stroke="#7A7A7A" stroke-width="0.585825"/>
<rect x="391.122" y="648.323" width="35.9081" height="37.0605" rx="4.97952" fill="white" stroke="#7A7A7A" stroke-width="0.585825"/>
<path d="M392.742 661.077C392.973 660.943 393.496 660.775 394.006 660.711C394.259 660.679 394.487 660.675 394.66 660.704C394.844 660.736 394.901 660.792 394.914 660.815C394.928 660.839 394.948 660.916 394.883 661.091C394.822 661.256 394.705 661.451 394.551 661.654C394.24 662.064 393.833 662.432 393.602 662.566C393.19 662.803 392.665 662.662 392.427 662.251C392.19 661.84 392.331 661.314 392.742 661.077Z" fill="#FF9393" stroke="#7A7A7A" stroke-width="0.585825"/>
<path d="M393.602 669.72C393.833 669.853 394.24 670.222 394.551 670.631C394.705 670.834 394.822 671.03 394.883 671.195C394.948 671.37 394.928 671.447 394.914 671.47C394.901 671.494 394.844 671.55 394.66 671.581C394.487 671.611 394.259 671.607 394.006 671.575C393.496 671.51 392.973 671.342 392.742 671.209C392.331 670.971 392.19 670.446 392.428 670.035C392.665 669.624 393.191 669.483 393.602 669.72Z" fill="#6E9AD0" stroke="#7A7A7A" stroke-width="0.585825"/>
<path d="M391.122 668.454V663.715L401.361 664.621C402.119 664.688 402.701 665.323 402.701 666.085C402.701 666.846 402.119 667.481 401.361 667.548L391.122 668.454Z" fill="white" stroke="#7A7A7A" stroke-width="0.585825"/>
</svg>
