<svg width="602" height="858" viewBox="0 0 602 858" fill="none" xmlns="http://www.w3.org/2000/svg">
<rect x="1.17165" y="785.072" width="712.146" height="599.299" rx="8.20155" transform="rotate(-90 1.17165 785.072)" fill="#DCE6FF" stroke="#96B7FF" stroke-width="2.3433"/>
<path d="M11.4075 765.832V92.168C11.4075 87.6384 15.0795 83.9664 19.609 83.9664L582.033 83.9664C586.563 83.9664 590.235 87.6384 590.235 92.168V765.832C590.235 770.361 586.563 774.033 582.033 774.033L19.6091 774.033C15.0795 774.033 11.4075 770.361 11.4075 765.832Z" fill="#FAFBFF" stroke="#96B7FF" stroke-width="2.3433"/>
<mask id="path-3-inside-1_167_186" fill="white">
<path d="M367.977 85.2476H377.176V238.571H367.977V85.2476Z"/>
</mask>
<path d="M377.176 238.571V240.329H378.934V238.571H377.176ZM367.977 238.571H366.22V240.329H367.977V238.571ZM375.419 85.2476V238.571H378.934V85.2476H375.419ZM377.176 236.814H367.977V240.329H377.176V236.814ZM369.735 238.571V85.2476H366.22V238.571H369.735Z" fill="#CBDBFF" mask="url(#path-3-inside-1_167_186)"/>
<mask id="path-5-inside-2_167_186" fill="white">
<path d="M334.859 238.571V229.372H388.829V238.571H334.859Z"/>
</mask>
<path d="M334.859 238.571V229.372H388.829V238.571H334.859Z" fill="white"/>
<path d="M334.859 238.571H333.101V240.329H334.859V238.571ZM334.859 229.372V227.614H333.101V229.372H334.859ZM388.829 229.372H390.586V227.614H388.829V229.372ZM388.829 238.571V240.329H390.586V238.571H388.829ZM336.616 238.571V229.372H333.101V238.571H336.616ZM334.859 231.129H388.829V227.614H334.859V231.129ZM387.071 229.372V238.571H390.586V229.372H387.071ZM388.829 236.814H334.859V240.329H388.829V236.814Z" fill="#CBDBFF" mask="url(#path-5-inside-2_167_186)"/>
<rect x="369.817" y="229.372" width="5.51966" height="1.84" fill="white"/>
<mask id="path-8-inside-3_167_186" fill="white">
<path d="M588.763 229.372V238.571H464.878V229.372H588.763Z"/>
</mask>
<path d="M464.878 238.571H463.12V240.328H464.878V238.571ZM464.878 229.372V227.614H463.12V229.372H464.878ZM588.763 236.814H464.878V240.328H588.763V236.814ZM466.635 238.571V229.372H463.12V238.571H466.635ZM464.878 231.129H588.763V227.614H464.878V231.129Z" fill="#CBDBFF" mask="url(#path-8-inside-3_167_186)"/>
<rect x="469.464" y="501.355" width="31.9188" height="107.967" fill="white" stroke="#7A7A7A" stroke-width="0.585825"/>
<rect x="501.968" y="477.436" width="86.5021" height="23.946" fill="white" stroke="#7A7A7A" stroke-width="0.585825"/>
<rect x="501.968" y="453.518" width="86.5021" height="23.946" fill="white" stroke="#7A7A7A" stroke-width="0.585825"/>
<rect x="501.968" y="429.599" width="86.5021" height="23.946" fill="white" stroke="#7A7A7A" stroke-width="0.585825"/>
<rect x="501.968" y="405.681" width="86.5021" height="23.946" fill="white" stroke="#7A7A7A" stroke-width="0.585825"/>
<rect x="501.968" y="381.762" width="86.5021" height="23.946" fill="white" stroke="#7A7A7A" stroke-width="0.585825"/>
<rect x="501.968" y="357.844" width="86.5021" height="23.946" fill="white" stroke="#7A7A7A" stroke-width="0.585825"/>
<path d="M501.675 357.551H588.763L543.073 407.534L501.675 453.225V357.551Z" fill="#FAFBFF"/>
<mask id="path-18-inside-4_167_186" fill="white">
<path d="M501.062 501.062H588.763V609.615H501.062V501.062Z"/>
</mask>
<path d="M501.062 501.062H588.763V609.615H501.062V501.062Z" fill="white"/>
<path d="M501.062 501.062V500.476H500.476V501.062H501.062ZM501.062 609.615H500.476V610.201H501.062V609.615ZM501.062 501.648H588.763V500.476H501.062V501.648ZM588.763 609.029H501.062V610.201H588.763V609.029ZM501.648 609.615V501.062H500.476V609.615H501.648Z" fill="#7A7A7A" mask="url(#path-18-inside-4_167_186)"/>
<line x1="501.941" y1="501.553" x2="551.618" y2="609.493" stroke="#7A7A7A" stroke-width="0.585825"/>
<line x1="501.869" y1="501.455" x2="588.957" y2="578.117" stroke="#7A7A7A" stroke-width="0.585825"/>
<rect x="501.675" y="238.572" width="0.613295" height="214.653" fill="#7A7A7A"/>
<mask id="path-23-inside-5_167_186" fill="white">
<path d="M543.38 203.248C543.38 195.321 549.806 188.895 557.733 188.895H588.764V218.946H557.733C549.806 218.946 543.38 212.521 543.38 204.594V203.248Z"/>
</mask>
<path d="M543.38 203.248C543.38 195.321 549.806 188.895 557.733 188.895H588.764V218.946H557.733C549.806 218.946 543.38 212.521 543.38 204.594V203.248Z" fill="white"/>
<path d="M542.794 203.248C542.794 194.997 549.482 188.309 557.733 188.309H588.764V189.481H557.733C550.129 189.481 543.966 195.644 543.966 203.248L542.794 203.248ZM588.764 219.532H557.733C549.482 219.532 542.794 212.844 542.794 204.594L543.966 204.594C543.966 212.197 550.129 218.361 557.733 218.361H588.764V219.532ZM557.733 219.532C549.482 219.532 542.794 212.844 542.794 204.594V203.248C542.794 194.997 549.482 188.309 557.733 188.309L557.733 189.481C550.129 189.481 543.966 195.644 543.966 203.248V204.594C543.966 212.197 550.129 218.361 557.733 218.361L557.733 219.532ZM588.764 188.895V218.946V188.895Z" fill="#7A7A7A" mask="url(#path-23-inside-5_167_186)"/>
<mask id="path-25-inside-6_167_186" fill="white">
<path d="M548.286 204.227C548.286 198.808 552.679 194.415 558.099 194.415H580.177V214.04H558.099C552.679 214.04 548.286 209.647 548.286 204.227V204.227Z"/>
</mask>
<path d="M548.286 204.227C548.286 198.808 552.679 194.415 558.099 194.415H580.177V214.04H558.099C552.679 214.04 548.286 209.647 548.286 204.227V204.227Z" fill="white"/>
<path d="M547.7 204.227C547.7 198.484 552.356 193.829 558.099 193.829H580.177V195H558.099C553.003 195 548.872 199.131 548.872 204.227L547.7 204.227ZM580.177 214.626H558.099C552.356 214.626 547.7 209.97 547.7 204.227L548.872 204.227C548.872 209.323 553.003 213.454 558.099 213.454H580.177V214.626ZM558.099 214.626C552.356 214.626 547.7 209.97 547.7 204.227V204.227C547.7 198.484 552.356 193.829 558.099 193.829L558.099 195C553.003 195 548.872 199.131 548.872 204.227V204.227C548.872 209.323 553.003 213.454 558.099 213.454L558.099 214.626ZM580.177 194.415V214.04V194.415Z" fill="#7A7A7A" mask="url(#path-25-inside-6_167_186)"/>
<mask id="path-27-inside-7_167_186" fill="white">
<path d="M579.564 191.824C579.564 190.206 580.875 188.895 582.493 188.895H588.763V218.946H582.493C580.875 218.946 579.564 217.635 579.564 216.017V191.824Z"/>
</mask>
<path d="M579.564 191.824C579.564 190.206 580.875 188.895 582.493 188.895H588.763V218.946H582.493C580.875 218.946 579.564 217.635 579.564 216.017V191.824Z" fill="white"/>
<path d="M578.978 191.824C578.978 189.883 580.552 188.309 582.493 188.309H588.763V189.481H582.493C581.199 189.481 580.15 190.53 580.15 191.824L578.978 191.824ZM588.763 219.532H582.493C580.552 219.532 578.978 217.959 578.978 216.017L580.15 216.017C580.15 217.312 581.199 218.361 582.493 218.361H588.763V219.532ZM582.493 219.532C580.552 219.532 578.978 217.959 578.978 216.017V191.824C578.978 189.883 580.552 188.309 582.493 188.309L582.493 189.481C581.199 189.481 580.15 190.53 580.15 191.824V216.017C580.15 217.312 581.199 218.361 582.493 218.361L582.493 219.532ZM588.763 188.895V218.946V188.895Z" fill="#7A7A7A" mask="url(#path-27-inside-7_167_186)"/>
<circle cx="574.044" cy="204.227" r="1.54697" stroke="#7A7A7A" stroke-width="0.585825"/>
<circle cx="584.471" cy="204.227" r="1.54697" stroke="#7A7A7A" stroke-width="0.585825"/>
<rect x="377.47" y="85.541" width="60.7437" height="49.7044" rx="0.878738" fill="white" stroke="#7A7A7A" stroke-width="0.585825"/>
<circle cx="407.842" cy="112.233" r="15.6528" fill="white" stroke="#7A7A7A" stroke-width="0.585825"/>
<circle cx="407.842" cy="112.233" r="13.8129" fill="white" stroke="#7A7A7A" stroke-width="0.585825"/>
<rect x="377.33" y="91.5342" width="61.0229" height="0.306648" fill="white" stroke="#7A7A7A" stroke-width="0.306648"/>
<circle cx="383.003" cy="88.6211" r="1.24033" fill="white" stroke="#7A7A7A" stroke-width="0.585825"/>
<circle cx="387.909" cy="88.6211" r="1.24033" fill="white" stroke="#7A7A7A" stroke-width="0.585825"/>
<circle cx="392.815" cy="88.6211" r="1.24033" fill="white" stroke="#7A7A7A" stroke-width="0.585825"/>
<circle cx="432.066" cy="88.6211" r="1.24033" fill="white" stroke="#7A7A7A" stroke-width="0.585825"/>
<rect x="438.186" y="85.541" width="55.224" height="49.7044" rx="0.878738" fill="white" stroke="#7A7A7A" stroke-width="0.585825"/>
<rect x="480.531" y="96.5805" width="28.5457" height="29.4656" rx="4.97952" transform="rotate(90 480.531 96.5805)" fill="white" stroke="#7A7A7A" stroke-width="0.585825"/>
<path d="M470.357 97.844C470.459 98.0195 470.591 98.4282 470.642 98.8308C470.667 99.0295 470.67 99.2052 470.648 99.3357C470.626 99.463 470.591 99.4941 470.588 99.4972C470.583 99.4986 470.539 99.5131 470.418 99.4682C470.294 99.4222 470.143 99.3324 469.983 99.2112C469.66 98.9658 469.373 98.6466 469.271 98.471C469.098 98.1711 469.201 97.7876 469.501 97.6145C469.801 97.4413 470.184 97.5441 470.357 97.844Z" fill="#FF9393" stroke="#7A7A7A" stroke-width="0.585825"/>
<path d="M463.458 98.4711C463.357 98.6466 463.069 98.9658 462.746 99.2112C462.586 99.3324 462.435 99.4222 462.311 99.4682C462.19 99.5132 462.146 99.4986 462.141 99.4972C462.138 99.4942 462.103 99.463 462.082 99.3357C462.059 99.2052 462.062 99.0295 462.087 98.8308C462.138 98.4283 462.27 98.0195 462.372 97.844C462.545 97.5441 462.928 97.4414 463.228 97.6145C463.528 97.7877 463.631 98.1712 463.458 98.4711Z" fill="#6E9AD0" stroke="#7A7A7A" stroke-width="0.585825"/>
<path d="M464.585 96.5805H468.238L467.521 104.689C467.47 105.264 466.988 105.705 466.411 105.705C465.834 105.705 465.352 105.264 465.302 104.689L464.585 96.5805Z" fill="white" stroke="#7A7A7A" stroke-width="0.585825"/>
<rect x="511.488" y="786.244" width="84.0214" height="13.4925" transform="rotate(-180 511.488 786.244)" fill="white"/>
<mask id="path-45-inside-8_167_186" fill="white">
<path d="M511.488 858H497.766C458.941 858 427.467 826.526 427.467 787.701V775.205H511.488V858Z"/>
</mask>
<path d="M511.488 858H497.766C458.941 858 427.467 826.526 427.467 787.701V775.205H511.488V858Z" fill="white"/>
<path d="M512.66 858.586H497.766C458.617 858.586 426.881 826.85 426.881 787.701L428.053 787.701C428.053 826.203 459.264 857.414 497.766 857.414H510.317L512.66 858.586ZM427.467 775.205H511.488H427.467ZM512.66 775.205V858.586L510.317 857.414V775.205H512.66ZM497.766 858.586C458.617 858.586 426.881 826.85 426.881 787.701V775.205H428.053V787.701C428.053 826.203 459.264 857.414 497.766 857.414L497.766 858.586Z" fill="#7A7A7A" mask="url(#path-45-inside-8_167_186)"/>
<rect x="125.726" y="71.7554" width="84.0214" height="13.4925" fill="white"/>
<mask id="path-48-inside-9_167_186" fill="white">
<path d="M125.726 0H139.448C178.273 0 209.747 31.474 209.747 70.299V82.7948H125.726V0Z"/>
</mask>
<path d="M125.726 0H139.448C178.273 0 209.747 31.474 209.747 70.299V82.7948H125.726V0Z" fill="white"/>
<path d="M124.554 -0.585825H139.448C178.597 -0.585825 210.333 31.1504 210.333 70.299L209.161 70.299C209.161 31.7975 177.95 0.585825 139.448 0.585825H126.897L124.554 -0.585825ZM209.747 82.7948H125.726H209.747ZM124.554 82.7948V-0.585825L126.897 0.585825V82.7948H124.554ZM139.448 -0.585825C178.597 -0.585825 210.333 31.1504 210.333 70.299V82.7948H209.161V70.299C209.161 31.7975 177.95 0.585825 139.448 0.585825L139.448 -0.585825Z" fill="#7A7A7A" mask="url(#path-48-inside-9_167_186)"/>
<rect x="209.747" y="71.7554" width="61.3295" height="13.4925" fill="white"/>
<rect x="211.267" y="73.8881" width="58.2905" height="9.2269" fill="white" stroke="#7A7A7A" stroke-width="0.585825"/>
<rect x="104.553" y="773.045" width="158.258" height="12.9067" fill="white" stroke="#7A7A7A" stroke-width="0.585825"/>
<mask id="path-53-inside-10_167_186" fill="white">
<path d="M13.4927 559.938H20.8522V724.915H13.4927V559.938Z"/>
</mask>
<path d="M13.4927 559.938H20.8522V724.915H13.4927V559.938Z" fill="white"/>
<path d="M20.8522 559.938H21.438V559.353H20.8522V559.938ZM20.8522 724.915V725.501H21.438V724.915H20.8522ZM13.4927 560.524H20.8522V559.353H13.4927V560.524ZM20.2664 559.938V724.915H21.438V559.938H20.2664ZM20.8522 724.329H13.4927V725.501H20.8522V724.329Z" fill="#7A7A7A" mask="url(#path-53-inside-10_167_186)"/>
<mask id="path-55-inside-11_167_186" fill="white">
<path d="M145.964 482.471C145.964 480.206 147.8 478.37 150.065 478.37H363.876C366.141 478.37 367.977 480.206 367.977 482.471V711.001C367.977 713.266 366.141 715.102 363.876 715.102H150.065C147.8 715.102 145.964 713.266 145.964 711.001V482.471Z"/>
</mask>
<path d="M145.964 482.471C145.964 480.206 147.8 478.37 150.065 478.37H363.876C366.141 478.37 367.977 480.206 367.977 482.471V711.001C367.977 713.266 366.141 715.102 363.876 715.102H150.065C147.8 715.102 145.964 713.266 145.964 711.001V482.471Z" fill="white"/>
<path d="M150.065 478.956H363.876V477.784H150.065V478.956ZM367.391 482.471V711.001H368.563V482.471H367.391ZM363.876 714.516H150.065V715.688H363.876V714.516ZM146.55 711.001V482.471H145.379V711.001H146.55ZM150.065 714.516C148.124 714.516 146.55 712.943 146.55 711.001H145.379C145.379 713.59 147.477 715.688 150.065 715.688V714.516ZM367.391 711.001C367.391 712.943 365.818 714.516 363.876 714.516V715.688C366.465 715.688 368.563 713.59 368.563 711.001H367.391ZM363.876 478.956C365.818 478.956 367.391 480.53 367.391 482.471H368.563C368.563 479.883 366.465 477.784 363.876 477.784V478.956ZM150.065 477.784C147.477 477.784 145.379 479.883 145.379 482.471H146.55C146.55 480.53 148.124 478.956 150.065 478.956V477.784Z" fill="#7A7A7A" mask="url(#path-55-inside-11_167_186)"/>
<mask id="path-57-inside-12_167_186" fill="white">
<path d="M152.71 489.217C152.71 486.952 154.546 485.116 156.811 485.116H357.13C359.395 485.116 361.231 486.952 361.231 489.217V704.255C361.231 706.52 359.395 708.356 357.13 708.356H156.811C154.546 708.356 152.71 706.52 152.71 704.255V489.217Z"/>
</mask>
<path d="M152.71 489.217C152.71 486.952 154.546 485.116 156.811 485.116H357.13C359.395 485.116 361.231 486.952 361.231 489.217V704.255C361.231 706.52 359.395 708.356 357.13 708.356H156.811C154.546 708.356 152.71 706.52 152.71 704.255V489.217Z" fill="white"/>
<path d="M156.811 485.702H357.13V484.53H156.811V485.702ZM360.645 489.217V704.255H361.817V489.217H360.645ZM357.13 707.77H156.811V708.942H357.13V707.77ZM153.296 704.255V489.217H152.125V704.255H153.296ZM156.811 707.77C154.87 707.77 153.296 706.196 153.296 704.255H152.125C152.125 706.843 154.223 708.942 156.811 708.942V707.77ZM360.645 704.255C360.645 706.196 359.071 707.77 357.13 707.77V708.942C359.718 708.942 361.817 706.843 361.817 704.255H360.645ZM357.13 485.702C359.071 485.702 360.645 487.276 360.645 489.217H361.817C361.817 486.629 359.718 484.53 357.13 484.53V485.702ZM156.811 484.53C154.223 484.53 152.125 486.629 152.125 489.217H153.296C153.296 487.276 154.87 485.702 156.811 485.702V484.53Z" fill="#7A7A7A" mask="url(#path-57-inside-12_167_186)"/>
<rect x="118.78" y="484.938" width="60.7437" height="60.7437" rx="9.08029" transform="rotate(-45 118.78 484.938)" fill="white" stroke="black" stroke-width="0.585825"/>
<rect x="126.14" y="484.898" width="50.2784" height="58.7374" rx="9.08029" transform="rotate(-45 126.14 484.898)" fill="white" stroke="black" stroke-width="0.585825"/>
<rect x="135.34" y="483.739" width="37.3633" height="7.43232" rx="3.71616" transform="rotate(-45 135.34 483.739)" fill="white" stroke="black" stroke-width="0.585825"/>
<rect x="398.085" y="511.168" width="170.554" height="60.7437" rx="9.08029" transform="rotate(90 398.085 511.168)" fill="white" stroke="black" stroke-width="0.585825"/>
<rect x="392.663" y="516.687" width="159.604" height="58.7374" rx="9.08029" transform="rotate(90 392.663 516.687)" fill="white" stroke="black" stroke-width="0.585825"/>
<rect x="387.658" y="533.7" width="37.3633" height="7.43232" rx="3.71616" transform="rotate(90 387.658 533.7)" fill="white" stroke="black" stroke-width="0.585825"/>
<rect x="387.658" y="579.668" width="37.3633" height="7.43232" rx="3.71616" transform="rotate(90 387.658 579.668)" fill="white" stroke="black" stroke-width="0.585825"/>
<rect x="387.658" y="625.636" width="37.3633" height="7.43232" rx="3.71616" transform="rotate(90 387.658 625.636)" fill="white" stroke="black" stroke-width="0.585825"/>
<rect x="286.116" y="529.566" width="133.726" height="58.9038" rx="11.4236" transform="rotate(90 286.116 529.566)" fill="white" stroke="black" stroke-width="0.585825"/>
<mask id="path-68-inside-13_167_186" fill="white">
<path d="M13.4927 85.248H96.9008V446.195C96.9008 450.078 93.7534 453.225 89.8709 453.225H13.4927V85.248Z"/>
</mask>
<path d="M13.4927 85.248H96.9008H13.4927ZM97.4867 446.195C97.4867 450.401 94.077 453.811 89.8709 453.811H13.4927V452.639H89.8709C93.4299 452.639 96.315 449.754 96.315 446.195L97.4867 446.195ZM13.4927 453.225V85.248V453.225ZM97.4867 85.248V446.195C97.4867 450.401 94.077 453.811 89.8709 453.811L89.8709 452.639C93.4299 452.639 96.315 449.754 96.315 446.195V85.248H97.4867Z" fill="#7A7A7A" mask="url(#path-68-inside-13_167_186)"/>
<rect x="34.6376" y="409.974" width="50.931" height="29.4656" rx="4.97952" fill="white" stroke="#7A7A7A" stroke-width="0.585825"/>
<circle cx="42.0108" cy="416.734" r="1.24033" stroke="#7A7A7A" stroke-width="0.585825"/>
<path d="M34.6376 425.932V422.255L50.2161 423.034C50.7807 423.062 51.2241 423.528 51.2241 424.093C51.2241 424.659 50.7807 425.125 50.2161 425.153L34.6376 425.932Z" fill="white" stroke="#7A7A7A" stroke-width="0.585825"/>
<line x1="85.4156" y1="402.322" x2="85.4156" y2="376.564" stroke="#7A7A7A" stroke-width="0.585825"/>
<line x1="76.8292" y1="402.322" x2="76.8292" y2="376.564" stroke="#7A7A7A" stroke-width="0.585825"/>
<line x1="68.2432" y1="402.322" x2="68.2432" y2="376.564" stroke="#7A7A7A" stroke-width="0.585825"/>
<line x1="59.6568" y1="402.322" x2="59.6568" y2="376.564" stroke="#7A7A7A" stroke-width="0.585825"/>
<line x1="51.0709" y1="402.322" x2="51.0709" y2="376.564" stroke="#7A7A7A" stroke-width="0.585825"/>
<path d="M42.6245 402.06V376.563" stroke="#7A7A7A" stroke-width="0.585825"/>
<line x1="34.0518" y1="402.06" x2="34.0518" y2="376.563" stroke="#7A7A7A" stroke-width="0.585825"/>
<line x1="13.4927" y1="368.911" x2="96.9008" y2="368.911" stroke="#7A7A7A" stroke-width="0.585825"/>
<path d="M19.4882 171.403H93.5414V232.146H19.4882C18.0323 232.146 16.852 230.966 16.852 229.51V174.039C16.852 172.583 18.0323 171.403 19.4882 171.403Z" fill="white" stroke="#7A7A7A" stroke-width="0.585825"/>
<rect x="28.5048" y="175.082" width="25.7859" height="25.7859" rx="2.63621" fill="white" stroke="#7A7A7A" stroke-width="0.585825"/>
<line x1="38.0244" y1="187.989" x2="44.7707" y2="187.989" stroke="#7A7A7A" stroke-width="0.585825"/>
<line x1="41.4112" y1="191.348" x2="41.4112" y2="184.602" stroke="#7A7A7A" stroke-width="0.585825"/>
<line x1="46.4037" y1="181.645" x2="50.7404" y2="177.309" stroke="#7A7A7A" stroke-width="0.585825"/>
<line x1="35.4076" y1="181.787" x2="31.071" y2="177.45" stroke="#7A7A7A" stroke-width="0.585825"/>
<line x1="31.0712" y1="197.931" x2="35.4079" y2="193.594" stroke="#7A7A7A" stroke-width="0.585825"/>
<line x1="46.818" y1="193.594" x2="51.1546" y2="197.931" stroke="#7A7A7A" stroke-width="0.585825"/>
<rect x="28.5048" y="202.681" width="25.7859" height="25.7859" rx="2.63621" fill="white" stroke="#7A7A7A" stroke-width="0.585825"/>
<line x1="38.0244" y1="215.587" x2="44.7707" y2="215.587" stroke="#7A7A7A" stroke-width="0.585825"/>
<line x1="41.4112" y1="218.946" x2="41.4112" y2="212.2" stroke="#7A7A7A" stroke-width="0.585825"/>
<line x1="46.4037" y1="209.244" x2="50.7404" y2="204.907" stroke="#7A7A7A" stroke-width="0.585825"/>
<line x1="35.4076" y1="209.385" x2="31.071" y2="205.048" stroke="#7A7A7A" stroke-width="0.585825"/>
<line x1="31.0712" y1="225.529" x2="35.4079" y2="221.193" stroke="#7A7A7A" stroke-width="0.585825"/>
<line x1="46.818" y1="221.193" x2="51.1546" y2="225.529" stroke="#7A7A7A" stroke-width="0.585825"/>
<rect x="56.7163" y="175.082" width="25.7859" height="25.7859" rx="2.63621" fill="white" stroke="#7A7A7A" stroke-width="0.585825"/>
<line x1="66.2358" y1="187.989" x2="72.9821" y2="187.989" stroke="#7A7A7A" stroke-width="0.585825"/>
<line x1="69.6226" y1="191.348" x2="69.6226" y2="184.602" stroke="#7A7A7A" stroke-width="0.585825"/>
<line x1="74.6151" y1="181.645" x2="78.9518" y2="177.309" stroke="#7A7A7A" stroke-width="0.585825"/>
<line x1="63.6195" y1="181.787" x2="59.2829" y2="177.45" stroke="#7A7A7A" stroke-width="0.585825"/>
<line x1="59.2826" y1="197.931" x2="63.6193" y2="193.594" stroke="#7A7A7A" stroke-width="0.585825"/>
<line x1="75.0294" y1="193.594" x2="79.366" y2="197.931" stroke="#7A7A7A" stroke-width="0.585825"/>
<rect x="56.7163" y="202.681" width="25.7859" height="25.7859" rx="2.63621" fill="white" stroke="#7A7A7A" stroke-width="0.585825"/>
<line x1="66.2358" y1="215.587" x2="72.9821" y2="215.587" stroke="#7A7A7A" stroke-width="0.585825"/>
<line x1="69.6226" y1="218.946" x2="69.6226" y2="212.2" stroke="#7A7A7A" stroke-width="0.585825"/>
<line x1="74.6151" y1="209.244" x2="78.9518" y2="204.907" stroke="#7A7A7A" stroke-width="0.585825"/>
<line x1="63.6195" y1="209.385" x2="59.2829" y2="205.048" stroke="#7A7A7A" stroke-width="0.585825"/>
<line x1="59.2826" y1="225.529" x2="63.6193" y2="221.193" stroke="#7A7A7A" stroke-width="0.585825"/>
<line x1="75.0294" y1="221.193" x2="79.366" y2="225.529" stroke="#7A7A7A" stroke-width="0.585825"/>
<rect x="157.91" y="277.094" width="43.749" height="47.0171" rx="8.49447" transform="rotate(-90 157.91 277.094)" fill="white" stroke="black" stroke-width="0.585825"/>
<rect x="162.332" y="274.09" width="36.1837" height="45.4598" rx="8.49447" transform="rotate(-90 162.332 274.09)" fill="white" stroke="black" stroke-width="0.585825"/>
<rect x="297.333" y="235.185" width="43.749" height="47.0171" rx="8.49447" transform="rotate(90 297.333 235.185)" fill="white" stroke="black" stroke-width="0.585825"/>
<rect x="292.911" y="238.802" width="36.1837" height="45.4598" rx="8.49447" transform="rotate(90 292.911 238.802)" fill="white" stroke="black" stroke-width="0.585825"/>
<rect x="250.315" y="334.13" width="43.749" height="47.0171" rx="8.49447" transform="rotate(-90 250.315 334.13)" fill="white" stroke="black" stroke-width="0.585825"/>
<rect x="247.451" y="330.182" width="36.1837" height="45.4598" rx="8.49447" transform="rotate(-90 247.451 330.182)" fill="white" stroke="black" stroke-width="0.585825"/>
<rect x="157.91" y="334.13" width="43.749" height="47.0171" rx="8.49447" transform="rotate(-90 157.91 334.13)" fill="white" stroke="black" stroke-width="0.585825"/>
<rect x="162.332" y="331.127" width="36.1837" height="45.4598" rx="8.49447" transform="rotate(-90 162.332 331.127)" fill="white" stroke="black" stroke-width="0.585825"/>
<rect x="267.717" y="205.133" width="157.644" height="80.3692" rx="13.7669" transform="rotate(90 267.717 205.133)" fill="white" stroke="black" stroke-width="0.585825"/>
<mask id="path-119-inside-14_167_186" fill="white">
<path d="M465.271 233L466.158 236.843L395.342 253.193L394.455 249.349L465.271 233Z"/>
</mask>
<path d="M465.271 233L466.158 236.843L395.342 253.193L394.455 249.349L465.271 233Z" fill="white"/>
<path d="M465.271 233L465.842 232.868L465.709 232.293L465.138 232.425L465.271 233ZM466.158 236.843L466.29 237.414L466.861 237.282L466.729 236.712L466.158 236.843ZM395.342 253.193L394.771 253.324L394.903 253.895L395.474 253.763L395.342 253.193ZM394.455 249.349L394.322 248.774L393.751 248.906L393.884 249.481L394.455 249.349ZM464.7 233.132L465.587 236.975L466.729 236.712L465.842 232.868L464.7 233.132ZM466.027 236.273L395.21 252.622L395.474 253.763L466.29 237.414L466.027 236.273ZM395.913 253.061L395.025 249.217L393.884 249.481L394.771 253.324L395.913 253.061ZM394.587 249.924L465.404 233.575L465.138 232.425L394.322 248.774L394.587 249.924Z" fill="#7A7A7A" mask="url(#path-119-inside-14_167_186)"/>
</svg>
