<svg width="43" height="43" viewBox="0 0 43 43" fill="none" xmlns="http://www.w3.org/2000/svg">
<path d="M3.17462 30.6543H39.8254" stroke="#FFDA92" stroke-width="3" stroke-miterlimit="10"/>
<path d="M7.76013 30.6543V38.2969" stroke="#FFDA92" stroke-width="3" stroke-miterlimit="10"/>
<path d="M35.2399 30.6543V38.2969" stroke="#FFDA92" stroke-width="3" stroke-miterlimit="10"/>
<path d="M10.8172 12.3457H32.1996V30.6711H10.8172V12.3457Z" stroke="#FFDA92" stroke-width="3" stroke-miterlimit="10"/>
<path d="M4.70312 15.3859L21.5 4.70312L38.2969 15.3859" stroke="#FFDA92" stroke-width="3" stroke-miterlimit="10"/>
<path d="M18.443 21.5H24.5571V30.6543H18.443V21.5Z" stroke="#FFDA92" stroke-width="3" stroke-miterlimit="10"/>
<path d="M3.17462 35.9957C3.70625 36.7082 4.39687 37.2867 5.19149 37.6852C5.98612 38.0838 6.86281 38.2913 7.75177 38.2913C8.64073 38.2913 9.51742 38.0838 10.312 37.6852C11.1067 37.2867 11.7973 36.7082 12.3289 35.9957C12.8626 36.7051 13.5539 37.2808 14.3483 37.6773C15.1426 38.0737 16.0183 38.2801 16.9061 38.2801C17.7939 38.2801 18.6695 38.0737 19.4638 37.6773C20.2582 37.2808 20.9495 36.7051 21.4832 35.9957C22.0131 36.708 22.7022 37.2866 23.4954 37.6852C24.2887 38.0838 25.1642 38.2913 26.052 38.2913C26.9397 38.2913 27.8152 38.0838 28.6085 37.6852C29.4018 37.2866 30.0909 36.708 30.6207 35.9957C31.1527 36.705 31.8425 37.2807 32.6355 37.6772C33.4284 38.0736 34.3029 38.2801 35.1895 38.2801C36.0761 38.2801 36.9505 38.0736 37.7435 37.6772C38.5365 37.2807 39.2263 36.705 39.7582 35.9957" stroke="#FFDA92" stroke-width="3" stroke-miterlimit="10"/>
</svg>
