<svg width="43" height="43" viewBox="0 0 43 43" fill="none" xmlns="http://www.w3.org/2000/svg">
<path d="M6.27081 34.0417C7.49631 28.9578 13.8478 25.0833 21.5 25.0833C29.1522 25.0833 35.5036 28.9578 36.7291 34.0417" stroke="#FFDA92" stroke-width="3" stroke-linecap="round" stroke-linejoin="round"/>
<path d="M31.3542 9.85416C35.6282 9.85416 39.4167 13.3542 39.4167 17.9167" stroke="#FFDA92" stroke-width="3" stroke-linecap="round" stroke-linejoin="round"/>
<path d="M31.4796 18.8125C33.7837 16.3283 33.6574 12.3383 31.3542 9.85416" stroke="#FFDA92" stroke-width="3" stroke-linecap="round" stroke-linejoin="round"/>
<path d="M29.9119 2.37216C32.4542 3.83954 32.8215 7.31179 31.3542 9.85416" stroke="#FFDA92" stroke-width="3" stroke-linecap="round" stroke-linejoin="round"/>
<path d="M31.3542 9.85416C28.6622 5.80499 23.8686 5.02024 20.6042 8.35901" stroke="#FFDA92" stroke-width="3" stroke-linecap="round" stroke-linejoin="round"/>
<path d="M17.0208 25.0833C17.0208 16.6723 23.839 9.85416 32.25 9.85416C27.7645 9.85416 24.1275 16.6723 24.1275 25.0833" stroke="#FFDA92" stroke-width="3" stroke-linecap="round" stroke-linejoin="round"/>
<path d="M2.6875 40.3125C4.38062 40.3125 6.07375 39.8144 7.54292 38.8165C7.96249 38.5381 8.45482 38.3896 8.95833 38.3896C9.46184 38.3896 9.95418 38.5381 10.3737 38.8165C11.8057 39.7906 13.4973 40.3118 15.2292 40.3125C16.9223 40.3125 18.6154 39.8144 20.0846 38.8165C20.5042 38.5381 20.9965 38.3896 21.5 38.3896C22.0035 38.3896 22.4958 38.5381 22.9154 38.8165C24.3473 39.7906 26.039 40.3118 27.7708 40.3125C29.464 40.3125 31.1571 39.8144 32.6262 38.8165C33.0458 38.5381 33.5382 38.3896 34.0417 38.3896C34.5452 38.3896 35.0375 38.5381 35.4571 38.8165C36.889 39.7906 38.5807 40.3118 40.3125 40.3125" stroke="#FFDA92" stroke-width="3" stroke-linecap="round" stroke-linejoin="round"/>
</svg>
